<svg id="Layer_1" data-name="Layer 1" xmlns="http://www.w3.org/2000/svg" viewBox="0 0 410.84 56.34"><defs><style>.cls-1{fill:#ededed;}</style></defs><path class="cls-1" d="M156.44,226.82c-3.12-2.44-6.85-3.24-10.65-3.53-4.09-.3-8.21-.41-12.31-.42q-34.26,0-68.51,0c-.64,0-.87.21-1.09.8Q55.55,246.83,47.18,270c-.86,2.37-1.71,4.75-2.6,7.22H45.7q9,0,17.95-.07c13.56,0,27.13,0,40.69-.09,8.31,0,16.63.27,24.9-.76a43.34,43.34,0,0,0,14.16-3.91A19.4,19.4,0,0,0,154.31,259c.93-3.91.18-7.29-3.1-9.87a23,23,0,0,0-1.93-1.28c0-.06.05-.09.08-.1.24-.13.49-.25.74-.36,5.24-2.51,8.81-6.32,9.55-12.33A8.45,8.45,0,0,0,156.44,226.82Zm-29.69,31.81a7.17,7.17,0,0,1-5,5.47,21.64,21.64,0,0,1-6.1,1.1c-12.73.15-25.47.15-38.2.2l-.74,0,1.75-4.83c.67-1.87,1.36-3.73,2-5.61a.88.88,0,0,1,1-.7c11.94,0,23.88,0,35.82,0a63.29,63.29,0,0,1,6.6.35C126.31,254.84,127.3,256.28,126.75,258.63Zm5.78-21.27c-.84,3.39-3.31,5.46-7.08,5.76-2.59.22-5.19.37-7.79.38-10.65,0-21.3,0-31.94,0H84.59l1.08-3c.72-2,1.48-4,2.15-6a.9.9,0,0,1,1-.73c4.63,0,9.27,0,13.9,0,7.79,0,15.59,0,23.38.05a22.68,22.68,0,0,1,4.72.53C132.43,234.69,132.92,235.78,132.53,237.36Z" transform="translate(-44.58 -221.83)"/><path class="cls-1" d="M454.63,232.33c-1.33-3.58-4.13-5.62-7.48-7a44.17,44.17,0,0,0-14.31-2.94c-4.82-.32-9.67-.42-14.51-.5s-9.76,0-14.64,0c0-.09-16.18.17-24.27.48a65.88,65.88,0,0,0-13.25,1.85c-4.93,1.23-9.37,3.34-12.87,7.17a39.85,39.85,0,0,0-5.73,8.63c-3.34,6.4-6,13.07-6.64,20.33a12,12,0,0,0,2.55,8.86,17.27,17.27,0,0,0,7.3,5.11c5.62,2.31,11.56,3.11,17.55,3.46,4.93.3,9.87.39,14.8.39,11.95,0,23.92.38,35.83-1.09a62.14,62.14,0,0,0,12.42-2.7c6.23-2.08,11.36-5.59,14.82-11.27A70.25,70.25,0,0,0,455,240.84,15,15,0,0,0,454.63,232.33Zm-26.32,10a48.12,48.12,0,0,1-5.95,14.82A16.68,16.68,0,0,1,411,265.07a61.72,61.72,0,0,1-11.59,1.16c-4.17.08-8.34.16-12.51.07a66.45,66.45,0,0,1-13.79-1.24,15.36,15.36,0,0,1-2.19-.67c-2.67-1.09-3.82-2.75-3.38-5.6a43,43,0,0,1,7.62-19.16c2.38-3.26,5.87-4.8,9.69-5.68a59.79,59.79,0,0,1,11.85-1.28c2.21-.06,6.63-.14,6.63-.2,4.41.18,8.83.25,13.22.61a34.66,34.66,0,0,1,7.28,1.38C428,235.71,429.25,238.18,428.31,242.36Z" transform="translate(-44.58 -221.83)"/><path class="cls-1" d="M274,225.84a21,21,0,0,0-8.6-2.37c-6-.32-12.07-.64-18.11-.67-20.84-.08-41.68,0-62.53-.05a1.31,1.31,0,0,0-1.5,1q-8.79,24.41-17.64,48.77c-.53,1.48-1,3-1.62,4.61h1.24c8.47,0,16.94,0,25.42,0a1.32,1.32,0,0,0,1.5-1q7.5-20.86,15.06-41.71a1,1,0,0,1,1.17-.84c13.59.07,27.19.1,40.78.2a13.24,13.24,0,0,1,4,.75,2.87,2.87,0,0,1,2,3.5c-.69,3.9-3.1,6.27-6.76,7.48a24.59,24.59,0,0,1-7.72.89c-10.31.06-20.63,0-30.94.05h-1.16c.4.35.6.53.81.7,5.82,4.56,11.59,9.17,17.46,13.66,6.06,4.64,12.2,9.18,18.33,13.73a9.8,9.8,0,0,0,5,2.12c2.8.23,5.62.44,8.43.46,6.85.07,13.69,0,20.54,0,.21,0,.42,0,.84-.1l-28.49-19.9a71.25,71.25,0,0,0,13.1-1.67c8.4-2.15,14-7.11,15.84-15.83C281.77,233.69,279.44,228.65,274,225.84Z" transform="translate(-44.58 -221.83)"/><path class="cls-1" d="M309.78,222.75a1.43,1.43,0,0,0-1.62,1.14q-8.57,23.87-17.21,47.73c-.65,1.79-1.29,3.59-2,5.48.39,0,.66,0,.92,0,8.66,0,17.31,0,26,0a1.06,1.06,0,0,0,1.17-.85q8-22.19,16-44.37c1.07-3,2.15-6,3.3-9.18H335.1C326.66,222.77,318.22,222.79,309.78,222.75Z" transform="translate(-44.58 -221.83)"/></svg>