<svg id="Layer_1" data-name="Layer 1" xmlns="http://www.w3.org/2000/svg" viewBox="0 0 415.79 107.61"><defs><style>.cls-1{fill:#ededed;}</style></defs><path class="cls-1" d="M143.29,270.61a23.62,23.62,0,0,0-2.76-2.33c-.78-.57-.84-1.11-.26-1.8a16.2,16.2,0,0,0,2.32-3.68,19.46,19.46,0,0,0,1.11-13.31,14.1,14.1,0,0,0-4.83-7.87,16.87,16.87,0,0,0-6.75-3.18,47.28,47.28,0,0,0-10.46-1.14c-4.7-.07-9.39-.05-14.09-.05H47.45a13.11,13.11,0,0,0-1.88.14,3.61,3.61,0,0,0-3.35,3.4,13,13,0,0,0-.12,1.65q0,28.05,0,56.11v.15c0,.52.05,1,.12,1.57a3.7,3.7,0,0,0,3.33,3.37,12.46,12.46,0,0,0,1.72.14c1.18,0,2.36,0,3.54,0H86.54v0h6c6.22,0,12.45,0,18.68,0,5,0,10-.08,15-.37a38.78,38.78,0,0,0,7.65-1.18A19.13,19.13,0,0,0,144,295.92a17.43,17.43,0,0,0,4-8.23,23.47,23.47,0,0,0,.06-7.05A16.68,16.68,0,0,0,143.29,270.61Zm-81.16-21c0-.27,0-.55,0-.82a4.46,4.46,0,0,1,4.51-4.28H101c3.06,0,6.12,0,9.18,0a46.16,46.16,0,0,1,7.87.71,9.32,9.32,0,0,1,5.28,3,9.43,9.43,0,0,1,2.19,5.27,14.63,14.63,0,0,1-.42,6,8.49,8.49,0,0,1-5.73,6.09,16.11,16.11,0,0,1-4.36.78c-1.9.09-3.81.15-5.72.16-6.15,0-12.3,0-18.45,0H67.36a8.34,8.34,0,0,1-1.5-.1,4.31,4.31,0,0,1-3.72-4.43c0-2.71,0-5.42,0-8.13C62.12,252.41,62.13,251,62.13,249.59Zm64.34,38.87a9,9,0,0,1-6.8,6.93,38.18,38.18,0,0,1-9.47,1.08l-43.84,0c-.41,0-.81,0-1.21,0a3.09,3.09,0,0,1-3-3.06c0-.45,0-.9,0-1.35q0-7,0-14a6,6,0,0,1,.07-1.12,4.27,4.27,0,0,1,4.4-3.66c3.69,0,7.38,0,11.07,0H91.29c7.23,0,14.46,0,21.69,0a27.39,27.39,0,0,1,6,.56,9.59,9.59,0,0,1,7.67,8.35A16,16,0,0,1,126.47,288.46Z" transform="translate(-42.1 -196.2)"/><path class="cls-1" d="M278.74,301.32q-7.75-8-15.52-16c-1.24-1.28-2.52-2.52-3.73-3.83a10.36,10.36,0,0,1-1.51-2,1.86,1.86,0,0,1,.57-2.49,4.6,4.6,0,0,1,1.08-.66,15,15,0,0,1,1.85-.65c1.44-.41,2.93-.72,4.35-1.2a16.19,16.19,0,0,0,10.36-9.71,22.18,22.18,0,0,0,.93-13.68,16.61,16.61,0,0,0-6.86-10,21.14,21.14,0,0,0-8.56-3.33,39.1,39.1,0,0,0-6.75-.48H215.24v0h-37.9c-1.43,0-2.87,0-4.3,0a10.06,10.06,0,0,0-2.37.35,3,3,0,0,0-2.16,2.21,9.86,9.86,0,0,0-.29,2.3c0,4.87,0,9.74,0,14.61v43.46a10.11,10.11,0,0,0,.13,1.65,2.06,2.06,0,0,0,2.19,1.87c1,.05,2,.08,3,.09,2.79,0,5.57,0,8.36,0,1.31,0,2.61-.05,3.92-.12a2.17,2.17,0,0,0,2.27-2.15,14.93,14.93,0,0,0,.06-1.5V282.86c0-.63,0-1.26.08-1.88a5,5,0,0,1,4-4.68,15,15,0,0,1,3.21-.34c10.27,0,20.54,0,30.82,0,.75,0,1.5,0,2.26,0a9.59,9.59,0,0,1,6.73,2.76c.27.26.56.5.82.77,2.55,2.56,5.12,5.1,7.65,7.69,3.78,3.89,7.53,7.81,11.31,11.7,1,1.08,2.15,2.11,3.24,3.14a5.45,5.45,0,0,0,2.84,1.47,9.2,9.2,0,0,0,1.57.17c4.84,0,9.69.05,14.54.07a10.79,10.79,0,0,0,1.27-.05,1,1,0,0,0,.82-1.68A4.24,4.24,0,0,0,278.74,301.32Zm-29.41-32.46a32.91,32.91,0,0,1-4.65.3c-8.17,0-16.33,0-24.49,0h0q-12.76,0-25.54,0a11,11,0,0,1-2.61-.31,4.64,4.64,0,0,1-3.76-4.5c-.13-2.74-.13-5.47-.13-8.21,0-2.23,0-4.47.11-6.7a9.77,9.77,0,0,1,.28-1.93,3.56,3.56,0,0,1,2.63-2.74,9.52,9.52,0,0,1,2.44-.35c2.74,0,5.47,0,8.21,0h40.46c1.76,0,3.52,0,5.27,0a13.47,13.47,0,0,1,3.78.62,10,10,0,0,1,7.25,8.07,16.49,16.49,0,0,1-.46,8.48C256.73,265.92,253.69,268.24,249.33,268.86Z" transform="translate(-42.1 -196.2)"/><path class="cls-1" d="M457.08,236.71a8.66,8.66,0,0,0-1.35-.07H447.6a2.59,2.59,0,0,0-2.08,1c-.25.34-.51.68-.76,1q-10.61,14.78-21.6,29.27-8.25,10.85-16.55,21.66a26,26,0,0,1-2.1,2.36,5.78,5.78,0,0,1-3.18,1.61,11.45,11.45,0,0,1-3.15.12,4.68,4.68,0,0,1-2.63-1,21.36,21.36,0,0,1-2.22-2.14,30.52,30.52,0,0,1-1.88-2.45l-34.63-47.54c-.48-.67-1-1.31-1.54-2a3.52,3.52,0,0,0-2.55-1.28c-.8-.06-1.6-.13-2.4-.15-1.86,0-3.72-.08-5.58-.08-3.51,0-7,0-10.54.08a3.47,3.47,0,0,0-1.37.35,1.48,1.48,0,0,0-.84,1.88,4.91,4.91,0,0,0,.7,1.39q20.22,27.72,40.48,55.4a45.07,45.07,0,0,0,3.36,4,10.25,10.25,0,0,0,7.35,3.31c3.34.13,6.68.17,9.18.23,4.15-.08,7.47-.11,10.78-.21A9.31,9.31,0,0,0,411,300c.63-.78,1.26-1.57,1.86-2.37l39.74-52.66c1.45-1.93,2.91-3.85,4.35-5.78a8.52,8.52,0,0,0,.75-1.13C458.09,237.31,457.87,236.84,457.08,236.71Z" transform="translate(-42.1 -196.2)"/><path class="cls-1" d="M298.93,213.21a21.77,21.77,0,0,0,.53-2.88c.39-3.24.73-6.48,1.1-9.72a2.45,2.45,0,0,1,.16-.66.4.4,0,0,1,.72,0,2,2,0,0,1,.17.65c.45,3.38.88,6.76,1.36,10.14a16.31,16.31,0,0,0,.69,2.92,3,3,0,0,0,2.45,2.1c.49.09,1,.12,1.49.17v0c.33,0,.66,0,1,0a3.57,3.57,0,0,0,3.19-2.17,6.81,6.81,0,0,0,.52-1.64c.26-1.74.48-3.48.7-5.22.37-3,.72-6.08,1.08-9.12a3.39,3.39,0,0,0,0-.45c0-.64-.26-.95-.9-1a12.39,12.39,0,0,0-2,0,1.11,1.11,0,0,0-1.05.93,9.56,9.56,0,0,0-.21,1.19q-.63,5.87-1.27,11.74a13.36,13.36,0,0,1-.26,1.56.7.7,0,0,1-.75.6.75.75,0,0,1-.81-.54,5,5,0,0,1-.24-.94c-.47-3.18-.91-6.36-1.39-9.53a22.79,22.79,0,0,0-.66-3.08,2.55,2.55,0,0,0-2.12-1.81,7,7,0,0,0-2.84.06,2.37,2.37,0,0,0-1.8,1.45,8.31,8.31,0,0,0-.54,1.87c-.43,3.19-.81,6.37-1.22,9.56-.11.82-.24,1.64-.42,2.44a.72.72,0,0,1-.8.65c-.43,0-.66-.17-.8-.65a8.38,8.38,0,0,1-.22-1.11l-1.41-11.12c-.08-.65-.16-1.3-.28-1.94a1.27,1.27,0,0,0-1.34-1.18,13,13,0,0,0-1.65,0c-.75.05-1,.38-1,1.11a3.2,3.2,0,0,0,0,.53c.59,4.32,1.17,8.65,1.8,13a13.08,13.08,0,0,0,.71,2.68,3.19,3.19,0,0,0,2.68,2.16,11.26,11.26,0,0,0,2.39.1A3.38,3.38,0,0,0,298.93,213.21Z" transform="translate(-42.1 -196.2)"/><path class="cls-1" d="M327.59,267.39a9.72,9.72,0,0,0-1.43-.09H300.7c-.5,0-1,0-1.51.07a1.33,1.33,0,0,0-1.36,1.34,26.5,26.5,0,0,0,0,5.56,1.34,1.34,0,0,0,1.34,1.36,9.24,9.24,0,0,0,1.28.07h25.62a10.69,10.69,0,0,0,1.5-.07,1.33,1.33,0,0,0,1.33-1.29,10.4,10.4,0,0,0,.1-1.58c0-1.35,0-2.7-.12-4.05A1.27,1.27,0,0,0,327.59,267.39Z" transform="translate(-42.1 -196.2)"/><path class="cls-1" d="M249,214.75c0,.93.35,1.25,1.28,1.34a6.85,6.85,0,0,0,1.28,0c.93-.1,1.22-.39,1.29-1.34,0-.65,0-1.3,0-2l-.09-12c0-.2,0-.4,0-.6s.08-.44.33-.41a.73.73,0,0,1,.47.29,2.57,2.57,0,0,1,.23.71c1,3.93,2,7.86,3.06,11.79a12.07,12.07,0,0,0,.79,2.1,2.78,2.78,0,0,0,2.23,1.62,11.53,11.53,0,0,0,2.69,0A2.65,2.65,0,0,0,265,214a18.66,18.66,0,0,0,.26-3c0-1.91,0-3.81,0-5.72,0,0-.17-7.48-.22-7.75a1,1,0,0,0-.91-.86,9.63,9.63,0,0,0-1.42,0c-1.13.07-1.46.42-1.48,1.55,0,.57,0,1.15,0,1.73q.06,6,.11,12a2.13,2.13,0,0,1,0,.67c0,.15-.2.35-.31.35a.64.64,0,0,1-.48-.25,1.68,1.68,0,0,1-.21-.63c-1.06-4.08-2.1-8.16-3.17-12.24a10.35,10.35,0,0,0-.65-1.76,2.78,2.78,0,0,0-2.42-1.66,12.08,12.08,0,0,0-2.25,0,3,3,0,0,0-2.82,2.68,9.82,9.82,0,0,0-.14,1.72c0,3.89.06,7.78.1,11.66C249,213.25,249,214,249,214.75Z" transform="translate(-42.1 -196.2)"/><path class="cls-1" d="M283.21,212.09c-.22,0-.45,0-.68,0-2.33,0-4.67,0-7,0-.77,0-1-.21-1-1,0-.48,0-1,0-1.43s0-1.19,0-1.81c.28,0,.48-.05.67-.05l4.22,0c.88,0,1.76,0,2.63-.09.71-.05,1-.32,1.08-1a5.4,5.4,0,0,0,0-1.27c-.09-1.07-.39-1.35-1.48-1.37s-2.06,0-3.09,0c-1.32,0-2.65,0-4.11,0,0-1,0-1.94,0-2.86,0-.72.22-.93.94-1h.38l6.63,0c1.57,0,1.9-.35,1.88-1.91s-.35-1.85-1.88-1.85l-6.4.07c-.9,0-1.81,0-2.71.07a2.74,2.74,0,0,0-2.82,2.59,4.46,4.46,0,0,0-.05.82c0,4.21.07,8.43.13,12.65a4.92,4.92,0,0,0,.18,1.26,2.36,2.36,0,0,0,1.82,1.81,6.86,6.86,0,0,0,1.56.19c2.76,0,5.53,0,8.29,0a5.28,5.28,0,0,0,1-.07,1.06,1.06,0,0,0,1-1.11,7.6,7.6,0,0,0,0-1.43A1.11,1.11,0,0,0,283.21,212.09Z" transform="translate(-42.1 -196.2)"/><path class="cls-1" d="M186.69,216.61a14.72,14.72,0,0,0,2.1,0,1.19,1.19,0,0,0,1-.79,10.08,10.08,0,0,0,.4-1.21c.23-.87.43-1.74.66-2.64h7.85l.25.92c.21.77.4,1.55.63,2.32a1.63,1.63,0,0,0,1.74,1.36,8,8,0,0,0,1,0c1.34-.06,1.59-.39,1.23-1.71-1.23-4.41-2.46-8.83-3.73-13.24a15.84,15.84,0,0,0-1-2.65,3.46,3.46,0,0,0-2.95-1.94,13.26,13.26,0,0,0-2.09,0,3.7,3.7,0,0,0-3.34,2.32,13.9,13.9,0,0,0-.78,2.19q-1.8,6.75-3.56,13.52a3.74,3.74,0,0,0-.1.67C185.92,216.3,186.1,216.57,186.69,216.61Zm5.47-9.85c.4-1.58.8-3.16,1.21-4.73a8.69,8.69,0,0,1,.29-.86,1,1,0,0,1,1-.66,1,1,0,0,1,1.07.67,8.29,8.29,0,0,1,.35,1q.73,2.72,1.46,5.45c.05.19.06.38.11.64h-5.86Z" transform="translate(-42.1 -196.2)"/><path class="cls-1" d="M207.85,213c.14,2.44,1.06,3.48,3.5,3.49,2,0,4,0,6,0a20.94,20.94,0,0,0,2.1-.1,1,1,0,0,0,1-1.08,7.72,7.72,0,0,0,0-1.36c-.06-.82-.41-1.15-1.24-1.21-.27,0-.55,0-.83,0l-5.12,0c-1.37,0-1.48-.11-1.49-1.49,0-3.79,0-7.58-.08-11.37,0-.6,0-1.2-.1-1.8a.91.91,0,0,0-.89-.87,18.39,18.39,0,0,0-2.1,0,.94.94,0,0,0-.87.82,3.71,3.71,0,0,0-.07.74c0,2.41,0,4.82,0,7.23C207.75,206,207.71,210.48,207.85,213Z" transform="translate(-42.1 -196.2)"/><path class="cls-1" d="M224.45,212.58a10.75,10.75,0,0,0,.16,1.5,2.48,2.48,0,0,0,2,2.07,6.69,6.69,0,0,0,1.41.15q3,0,6,0c.61,0,1.21,0,1.81-.06.92-.09,1.18-.37,1.25-1.27a8,8,0,0,0,0-1c-.07-1.11-.38-1.43-1.48-1.45s-2,0-2.94,0c-1.13,0-2.26,0-3.39,0-.61,0-.8-.22-.85-.82,0-.12,0-.25,0-.37q-.06-6.28-.13-12.57a6.38,6.38,0,0,0-.1-1,1,1,0,0,0-.87-.81q-.6-.06-1.2-.06c-1.54,0-1.85.34-1.85,1.87v6.93S224.33,210.43,224.45,212.58Z" transform="translate(-42.1 -196.2)"/></svg>