<svg width="24" height="20" viewBox="0 0 24 20" fill="none" xmlns="http://www.w3.org/2000/svg">
<path d="M11.8485 0.694553C9.05323 0.653512 5.17021 0.713513 4.37076 2.86107L2.40657 7.47009C2.31945 7.37043 2.2052 7.2983 2.07776 7.26249L1.28695 7.04001C1.19999 7.01535 1.10902 7.00811 1.01926 7.0187C0.929497 7.0293 0.84271 7.05751 0.76388 7.10173C0.685051 7.14595 0.615731 7.20531 0.5599 7.27639C0.504068 7.34747 0.462825 7.42887 0.438537 7.51594L0.0259709 8.98092C0.0013504 9.06786 -0.00586173 9.15881 0.00474832 9.24854C0.0153584 9.33828 0.0435818 9.42503 0.0877994 9.50384C0.132017 9.58264 0.191359 9.65193 0.26242 9.70775C0.333481 9.76356 0.414863 9.8048 0.501898 9.82909L1.29295 10.0518C1.31935 10.059 1.34575 10.0614 1.37215 10.0657C1.22095 10.4425 1.12687 10.8568 1.12687 11.1033V16.4601C1.12687 16.7347 1.24207 16.8619 1.42495 16.9214V18.3485C1.42467 18.4752 1.44941 18.6007 1.49776 18.7178C1.54611 18.8349 1.61711 18.9413 1.70669 19.0309C1.79627 19.1204 1.90267 19.1914 2.01977 19.2398C2.13686 19.2881 2.26236 19.3129 2.38905 19.3126H4.97557C5.10225 19.3129 5.22775 19.2881 5.34484 19.2398C5.46194 19.1914 5.56834 19.1204 5.65792 19.0309C5.7475 18.9413 5.8185 18.8349 5.86685 18.7178C5.9152 18.6007 5.93994 18.4752 5.93966 18.3485V16.9738H18.0606V18.3485C18.0603 18.4752 18.0851 18.6007 18.1335 18.7178C18.1819 18.8348 18.2529 18.9412 18.3425 19.0308C18.4321 19.1204 18.5385 19.1914 18.6556 19.2397C18.7727 19.2881 18.8982 19.3128 19.0249 19.3126H21.6109C21.7376 19.3129 21.8632 19.2881 21.9803 19.2398C22.0974 19.1915 22.2038 19.1205 22.2935 19.0309C22.3831 18.9413 22.4541 18.8349 22.5025 18.7178C22.5509 18.6007 22.5757 18.4752 22.5755 18.3485V16.9217C22.7586 16.8622 22.8731 16.735 22.8731 16.4604V11.1035C22.8731 10.857 22.7788 10.4428 22.6278 10.066C22.6542 10.0619 22.6806 10.0595 22.707 10.0521L23.4983 9.82933C23.5853 9.80501 23.6667 9.76376 23.7377 9.70793C23.8088 9.65211 23.8681 9.58281 23.9123 9.50401C23.9565 9.42521 23.9847 9.33846 23.9953 9.24874C24.0059 9.15901 23.9986 9.06808 23.974 8.98116L23.5619 7.51618C23.5376 7.42911 23.4963 7.34769 23.4405 7.27661C23.3846 7.20553 23.3153 7.14617 23.2364 7.10196C23.1576 7.05774 23.0708 7.02952 22.981 7.01893C22.8912 7.00835 22.8002 7.01559 22.7133 7.04025L21.9225 7.26273C21.795 7.29869 21.6807 7.37079 21.5934 7.47033L19.6292 2.86131C18.7724 0.681113 14.6439 0.735593 11.8485 0.694553ZM19.8543 7.76122C19.9009 7.89946 19.7617 7.99162 19.616 8.00002C19.616 8.00002 19.1399 8.04034 18.4832 8.09338C17.9835 6.92601 16.8224 6.10327 15.4772 6.10327C14.0009 6.10327 12.7476 7.09449 12.3456 8.44427C12.2342 8.44571 12.1049 8.45051 12.0014 8.45051C9.45811 8.45051 4.38396 8.00002 4.38396 8.00002C4.23851 7.99138 4.09907 7.89922 4.14563 7.76122C6.09974 1.80409 6.15806 2.25194 11.892 2.31458C17.6257 2.37698 17.659 1.95145 19.8543 7.76122ZM15.4772 7.22913C15.8312 7.22791 16.1799 7.31482 16.4919 7.48204C16.804 7.64926 17.0695 7.89153 17.2645 8.18698C16.1161 8.27219 14.7944 8.35931 13.5627 8.40995C13.7399 8.05416 14.0131 7.75502 14.3514 7.54636C14.6897 7.33769 15.0797 7.22781 15.4772 7.22913ZM2.25752 9.16236C2.2748 9.18804 2.2916 9.21372 2.31081 9.23844H2.2364L2.25752 9.16236ZM3.5281 10.6585C4.03115 10.6504 6.73167 11.5593 6.73167 11.5593C7.06888 11.6543 7.36576 12.2918 7.36408 12.6422C7.35904 13.8223 4.31388 13.4126 3.07762 13.4174C2.99454 13.4175 2.91226 13.4013 2.83547 13.3696C2.75869 13.3379 2.68892 13.2913 2.63017 13.2326C2.57141 13.1739 2.52483 13.1041 2.49309 13.0273C2.46135 12.9506 2.44508 12.8683 2.44521 12.7852V11.2912C2.44521 10.9408 3.02506 10.6672 3.5281 10.6585ZM20.4719 10.6585C20.9749 10.6669 21.5548 10.9408 21.5548 11.2912V12.7852C21.5549 12.8683 21.5387 12.9506 21.507 13.0274C21.4752 13.1042 21.4287 13.174 21.3699 13.2327C21.3111 13.2915 21.2414 13.3381 21.1646 13.3698C21.0878 13.4015 21.0055 13.4178 20.9224 13.4176C19.6863 13.4128 16.6409 13.8223 16.6359 12.6422C16.6342 12.2918 16.9311 11.6543 17.2683 11.5593C17.2683 11.5593 19.9688 10.6504 20.4719 10.6585Z" fill="white"/>
</svg>
