<svg id="Layer_1" data-name="Layer 1" xmlns="http://www.w3.org/2000/svg" viewBox="0 0 444.78 93.03"><defs><style>.cls-1{fill:#ededed;}.cls-2{fill:#050505;}.cls-3{fill:#fff;}.cls-4{fill:#92462e;}.cls-5{fill:#babbbb;}.cls-6{fill:#f42111;}.cls-7{fill:#da3726;}.cls-8{fill:#f3f2f2;}</style></defs><path class="cls-1" d="M131.4,219.29c-9.32,0-18.64.06-28,0A32.2,32.2,0,0,1,86.72,215c-6.54-3.94-10-10-11.13-17.29-.84-5.46-.72-10.93,1.54-16.18a22.22,22.22,0,0,1,15.72-13.16,57.19,57.19,0,0,1,13.3-1.65c16.89-.19,33.79-.09,50.68,0,.9,0,2.48.35,2.59.81a13.73,13.73,0,0,1,0,4.34c0,.23-.74.52-1.16.58a17.45,17.45,0,0,1-2.4.1c-13.55,0-27.09-.06-40.62.19a35.88,35.88,0,0,0-10.38,1.95c-5.68,1.86-8.92,6.14-10.06,12a26.28,26.28,0,0,0,1.33,15.59c2.85,6.72,8.62,9.46,15.48,10.09,4.46.42,9,.45,13.45.47,11.94.07,23.87,0,35.8,0,2.85,0,3,.12,3,2.9,0,.47,0,.94,0,1.41.1,1.62-.64,2.26-2.28,2.22-2.88-.08-5.76,0-8.65,0H131.4Z" transform="translate(-24.91 -165.94)"/><path class="cls-1" d="M300.76,166.91a22.58,22.58,0,0,1,2.89-.51c5.16,0,10.33.1,15.49,0a8.69,8.69,0,0,1,6,2.28q12.92,10.88,25.92,21.63c3.42,2.84,5.88,2.85,9.32,0Q373.73,179.2,387,168a6.08,6.08,0,0,1,4.38-1.53c3,.08,6.09,0,9.14,0l.21.59c-1.15,1-2.28,2.11-3.47,3.11q-16.86,14.3-33.74,28.56a6.65,6.65,0,0,0-2.5,5.44q0,6,0,12.07c0,2.53-.55,3.06-3.08,3.08q-6.84,0-13.68,0c-2.29,0-2.82-.57-2.83-2.89,0-4.16-.09-8.32,0-12.47a6.84,6.84,0,0,0-2.84-5.87q-17.47-14.17-34.88-28.45C302.87,168.92,302.05,168.09,300.76,166.91Z" transform="translate(-24.91 -165.94)"/><path class="cls-1" d="M247.7,165.94h39.8c4,0,5.2,1.68,4.14,5.61-.37,1.37-1.37,1.51-2.48,1.51-3.62,0-7.24,0-10.86,0-5,.07-10.05,0-15.06.34s-7.59,2.65-7.83,7.65c-.36,7.28-.31,14.59-.38,21.89-.05,4.49,0,9,0,13.47,0,2.72-.55,3.25-3.33,3.29q-5,.08-10,0c-3,0-3.53-.6-3.54-3.55,0-9.85,0-19.7,0-29.55a50.35,50.35,0,0,0-.35-6c-.56-4.52-2.73-6.72-7.26-7.13-3.46-.32-7-.34-10.44-.39-4.22-.07-8.44,0-12.66,0-3.52,0-3.93-.38-3.94-3.45s.49-3.63,4.05-3.64l27.34,0Z" transform="translate(-24.91 -165.94)"/><path class="cls-1" d="M192.69,192.94q0,11.35,0,22.71c0,3.38-.38,3.79-3.82,3.89-3,.09-6,.08-9,0-3.5-.09-4-.55-4-4,0-7.1,0-14.2,0-21.3q0-12.06,0-24.12c0-3.1.66-3.8,3.76-3.86,3.28,0,6.57,0,9.85,0,2.5.06,3.18.82,3.19,3.33C192.7,177.39,192.69,185.17,192.69,192.94Z" transform="translate(-24.91 -165.94)"/><path class="cls-1" d="M222.45,246.08c3.07,3.63,3.23,7.64.16,10a8.24,8.24,0,0,1-4.59,1.6c-7.37.17-14.74.05-22.11.09-1.78,0-2.52-.66-2.49-2.5.09-5.23,0-10.45,0-15.68,0-2.36.58-3,3-3q10.15-.06,20.3,0C222.78,236.62,225.12,240.47,222.45,246.08Zm-14,7.84c2,0,4,0,6,0,2.2,0,3.12-.87,3.16-2.75s-.73-2.74-3-2.78c-3.35-.07-6.7,0-10.05,0-4.14,0-4.1,0-3.9,4.08.05,1.13.47,1.54,1.57,1.51C204.31,253.9,206.39,253.93,208.47,253.92Zm-.19-13.85v0c-2,0-4,.06-6,0-1.47-.06-1.71.75-1.55,1.89s-.76,2.95,1.53,3q6.1.06,12.23,0a2.22,2.22,0,0,0,2.43-2.54,2.14,2.14,0,0,0-2.41-2.32C212.42,240.05,210.35,240.07,208.28,240.07Z" transform="translate(-24.91 -165.94)"/><path class="cls-1" d="M159.05,247c0-2.81,0-5.63,0-8.44,0-1.46.62-2,2-2.08,5.24-.3,5.24-.33,5.24,4.89,0,3.47,0,3.47,3.4,3.47s6.56,0,9.85,0c1.64,0,2.32-.63,2.2-2.28-.09-1.26,0-2.54,0-3.82,0-.4-.12-.9.08-1.18,1.41-2.05,3.52-.77,5.31-1,1.14-.17,1.78.53,1.79,1.66,0,6,0,11.92,0,17.88a.65.65,0,0,1,0,.2c-1.07,2.81-3.45,1.1-5.21,1.45-1.23.24-2-.4-2-1.85.06-1.8,0-3.62,0-5.42.07-1.44-.44-2.11-1.94-2.1-3.88,0-7.77,0-11.65,0-1.38,0-1.93.58-1.88,1.95.07,1.81,0,3.62,0,5.43,0,1.41-.62,2-2.07,2.06-5.2.24-5.19.28-5.19-5Z" transform="translate(-24.91 -165.94)"/><path class="cls-1" d="M24.94,247c0-2.82,0-5.63,0-8.44,0-1.33.54-1.92,1.88-2,5.28-.46,5.37-.4,5.37,4.92,0,3.43,0,3.43,3.47,3.43,3.28,0,6.56,0,9.84,0,1.52,0,2.25-.52,2.15-2.12-.08-1.26,0-2.54,0-3.81a2.73,2.73,0,0,1,.07-1.19c1.25-2.36,3.44-.88,5.2-1.19,1.17-.21,1.91.38,1.9,1.69,0,5.9,0,11.79,0,17.68,0,1.23-.54,1.77-1.8,1.88-5.24.43-5.34.34-5.37-5,0-4.9.72-4.44-4.55-4.45-2.81,0-5.63.06-8.44,0-1.78-.06-2.62.51-2.47,2.41.12,1.53,0,3.08,0,4.62,0,.46.11,1.06-.12,1.37-1.52,2-3.7.8-5.57.89-.49,0-1.44-1.17-1.48-1.84C24.85,252.9,24.94,250,24.94,247Z" transform="translate(-24.91 -165.94)"/><path class="cls-1" d="M92.29,257.93c-2.83.86-4.48-1.3-5.92-3.66a4,4,0,0,0-4-2.07,108.93,108.93,0,0,1-11.85,0c-3.37-.25-5.73.83-7.22,3.8-.91,1.81-2.41,2.09-4.21,1.89-1.5-.16-1.73-.83-.87-2q6.66-8.93,13.36-17.83a4.19,4.19,0,0,1,.39-.45c2.11-2.06,10.15-1.49,11.89.89q6,8.27,12,16.58a8.83,8.83,0,0,1,.82,2.1,18.18,18.18,0,0,1-2.16.71A13.44,13.44,0,0,1,92.29,257.93Zm-9.82-9.28-5.09-7c-1.06-1.44-2.3-1.37-3.33-.1-1.79,2.21-3.43,4.53-5.34,7.09Z" transform="translate(-24.91 -165.94)"/><path class="cls-1" d="M245.6,236.59c3.57-.76,5.8.83,7.74,3.7,3.44,5.1,7.19,10,10.77,15,.37.53.77,1.49.53,1.89s-1.22.53-1.88.74c-.19.05-.41,0-.6,0-3.67.6-6.36-.66-8-4a3.17,3.17,0,0,0-3.32-1.69c-4.09.1-8.2.25-12.27,0-3.3-.24-5.61.79-7.07,3.7-.94,1.88-2.48,2.22-4.36,2-1.28-.16-1.75-.69-.9-1.83q6.74-9,13.49-18C241.28,235.93,243.58,236.74,245.6,236.59Zm-8.84,12.06h13.79c-1.83-2.5-3.39-4.7-5-6.85-1.21-1.57-2.32-1.64-3.58-.07C240.19,243.88,238.6,246.17,236.76,248.65Z" transform="translate(-24.91 -165.94)"/><path class="cls-1" d="M307.81,249.8c0,2.42,0,4.21,0,6a2,2,0,0,1-2.15,2.31c-.34,0-.67,0-1,0-3.9.1-4.19-.19-4.19-4.13,0-5,0-9.91,0-14.87,0-2.24.56-2.81,2.83-2.9.74,0,1.47,0,2.21,0a2.07,2.07,0,0,1,2.28,2.41c0,1.86,0,3.72,0,6,2.78-1.42,5.32-2.7,7.85-4,2.32-1.2,4.56-2.58,7-3.57a13.26,13.26,0,0,1,4.46-.69c.52,0,1.06.62,1.59,1-.37.51-.63,1.21-1.12,1.5-3,1.73-6.1,3.35-9.14,5-1.81,1-3.59,2-5.8,3.23,2.35,1.27,4.35,2.38,6.37,3.45,3,1.58,6.08,3.09,9.06,4.76.62.35.94,1.25,1.4,1.9a8.46,8.46,0,0,1-2,1c-3.81.73-6.59-1.8-9.68-3.26S311.45,251.7,307.81,249.8Z" transform="translate(-24.91 -165.94)"/><path class="cls-1" d="M143.84,257.79c-3.21,0-6.43.09-9.64,0-7.53-.24-12-6.08-10.36-13.44a9.14,9.14,0,0,1,8.28-7.34c6.88-.33,13.79-.24,20.68-.31,1.18,0,1.65.61,1.63,1.77s-.55,1.73-1.72,1.73c-3.88,0-7.77,0-11.65,0-.94,0-1.88,0-2.81,0-7.2.18-8.11,5.25-6.59,10.07.88,2.78,3.35,3.54,5.94,3.6,5.29.12,10.58,0,15.87.15a3,3,0,0,1,2.26,1c.8,1.53-.09,2.73-1.84,2.75-3.35,0-6.7,0-10,0Z" transform="translate(-24.91 -165.94)"/><path class="cls-1" d="M285.21,257.8c-3.15,0-6.31.06-9.46,0-10.09-.23-12.45-9.22-9.8-15.57a8.29,8.29,0,0,1,7.38-5.2c7-.35,13.93-.26,20.9-.34,1.29,0,1.49.84,1.47,1.91,0,1.24-.7,1.6-1.81,1.59-4,0-8.05,0-12.07,0-.74,0-1.48,0-2.21,0-6.74.3-8,4.2-6.78,9.71.51,2.38,2.89,3.88,6.14,4,5.29.13,10.59,0,15.88.15a3,3,0,0,1,2.28,1c.8,1.56-.08,2.73-1.87,2.75-3.35,0-6.7,0-10.05,0Z" transform="translate(-24.91 -165.94)"/><path class="cls-1" d="M107.37,236.43c4.62,0,9.24,0,13.87,0,1.39,0,2.32.24,2.27,2s-1,1.82-2.26,1.8c-2.28,0-4.55,0-6.83,0-3.06,0-3.52.47-3.52,3.46,0,4-.05,7.9,0,11.85,0,1.72-.63,2.41-2.36,2.41-5.83,0-4.84.14-4.9-4.81,0-3.28,0-6.56,0-9.84,0-2.32-.71-3-3-3.06s-4.82,0-7.23,0c-1.38,0-2.58,0-2.56-1.91s1.34-1.84,2.64-1.84Z" transform="translate(-24.91 -165.94)"/><path d="M370.2,238.52c.27-2.77.27-2.77,2.7-2.77,4,0,7.89,0,11.84,0,.83,0,2-.26,2.05,1s-1,1.67-2.11,1.69c-3.44,0-6.89,0-10.34.06Z" transform="translate(-24.91 -165.94)"/><path class="cls-2" d="M465.31,239.66a12.75,12.75,0,0,1-8.47,18c-4.27,1.09-8.66,1.09-13,1.21-8.68.22-17.36.07-26-.15a27,27,0,0,1-4.11-.38,8.23,8.23,0,0,1-7.05-9.59c.2-1.42,0-3.28.85-4.09s2.62-.2,4-.24a2.74,2.74,0,0,0,.5-.08c0-.12.13-.27.1-.32-3.61-5.24-.63-14.31,6.74-16.8a29.39,29.39,0,0,1,8.11-1.5,265.41,265.41,0,0,1,34.31.17,12.89,12.89,0,0,1,3.52.77,7.43,7.43,0,0,1,4.54,9.52c0,.11-.09.21-.13.32C468.13,239.23,468.13,239.23,465.31,239.66Zm-50.63-5.46c-3.26,5.9-.53,10.78,6.15,11h24.3c.94,0,2.24-.25,2.25,1.16a2.08,2.08,0,0,1-2.14,2.07c-.85.07-1.71.22-2.57.23-3.22,0-6.43.08-9.65,0-1.6,0-3.4.46-4.56-1.3-.09-.15-.54-.09-.82-.09H410.57c-.41,0-.95-.2-1,.54-.24,2.19-.42,4.36,1.37,6.1,1.49,1.65,3.55,1.85,5.53,1.9,11,.31,21.93.45,32.88,0,3.3-.13,6.68-.21,9.66-2,3.32-1.92,4.5-5.09,4.86-8.64.28-2.89-1.12-4.83-3.87-5.76a17.63,17.63,0,0,0-5.78-.73l-22.08,0c-.82,0-1.72,0-1.85-1.06s.6-1.58,1.45-1.88a6.38,6.38,0,0,1,1.69-.3c4.48-.34,9-.22,13.44-.16.65,0,1.4.13,1.66.73.39.89,1.06.72,1.72.71l13.62,0c2.36,0,3.52-1.51,2.91-3.8a11,11,0,0,0-.58-1.37c-1-2.34-3.23-2.6-5.33-2.77-11-.88-22.07-.59-33.11-.22a26.47,26.47,0,0,0-7.63,1.28C417.74,230.56,415.72,231.8,414.68,234.2Z" transform="translate(-24.91 -165.94)"/><path class="cls-2" d="M342.29,258l5.82-18.24c1.31-4.1,2.63-8.19,3.9-12.3a1.45,1.45,0,0,1,1.66-1.23q22.69.06,45.38,0,.34,0,.69,0c3.81.23,7.32,1.19,8.76,5.18s.29,7.81-2.65,10.92a1.77,1.77,0,0,0-.5,2.31c.68,1.59.35,3.29,0,4.93-.48,2.47-1.1,4.93-1.57,7.41-.15.8-.49,1-1.25,1q-10.44,0-20.88.08c-1,0-1-.31-.79-1.1.6-2.27,1.09-4.58,1.69-6.85.26-1,.15-1.43-1.05-1.42q-6.64.07-13.29,0c-.95,0-1.14.5-1.37,1.18q-1.17,3.51-2.36,7c-.18.53-.23,1.1-1.06,1.1C356.44,258,349.43,258,342.29,258Zm4.49-4.5c-.91,1.43-.41,1.77,1.13,1.74,4.11-.09,8.23-.13,12.34,0,1.54,0,2.38-.37,2.43-2,.22-.59.45-1.17.67-1.76.64-1.78.81-4.12,2.06-5.17s3.75-.32,5.68-.34c3.86-.05,7.71,0,11.57,0,2.75,0,3.54,1.19,2.85,3.88-.28,1.1-.47,2.21-.7,3.32.19.69-1.64,2,.47,2.06,5,.09,10,0,15,0,1.13,0,1.2-.55,1.08-1.39.92-1.69,1-3.61,1.34-5.44a5.22,5.22,0,0,0-.15-3.22,3.63,3.63,0,0,0-2.74-1.86c5.45-3.33,6.07-5.22,6.35-8.46.14-2.7-1-4.45-3.41-5.17a17.55,17.55,0,0,0-5.05-.64q-20.19,0-40.38,0c-3,0-3,0-3.76,3-.28.85-.56,1.69-.83,2.54Q349.76,244.06,346.78,253.49Z" transform="translate(-24.91 -165.94)"/><polygon class="cls-3" points="393.98 66.51 393.97 66.51 393.97 66.52 393.98 66.51"/><path class="cls-3" d="M418.54,232.79h0Z" transform="translate(-24.91 -165.94)"/><path class="cls-3" d="M448.92,248.65s0,0-.05,0h.05Z" transform="translate(-24.91 -165.94)"/><path class="cls-3" d="M449.27,248h0Z" transform="translate(-24.91 -165.94)"/><polygon class="cls-3" points="387.4 86.22 387.4 86.22 387.41 86.23 387.4 86.22"/><path class="cls-3" d="M431.7,235.69a6.38,6.38,0,0,1,1.69-.3c4.48-.34,9-.22,13.44-.16.65,0,1.4.13,1.66.73.39.89,1.06.72,1.72.71l13.62,0c2.36,0,3.52-1.51,2.91-3.8a11,11,0,0,0-.58-1.37c-1-2.34-3.23-2.6-5.33-2.77-11-.88-22.07-.59-33.11-.22a26.47,26.47,0,0,0-7.63,1.28c-2.35.8-4.37,2-5.41,4.44-3.26,5.9-.53,10.78,6.15,11h24.3c.94,0,2.24-.25,2.25,1.16a2.08,2.08,0,0,1-2.14,2.07c-.85.07-1.71.22-2.57.23-3.22,0-6.43.08-9.65,0-1.6,0-3.4.46-4.56-1.3-.09-.15-.54-.09-.82-.09H410.57c-.41,0-.95-.2-1,.54-.24,2.19-.42,4.36,1.37,6.1,1.49,1.65,3.55,1.85,5.53,1.9,11,.31,21.93.45,32.88,0,3.3-.13,6.68-.21,9.66-2,3.32-1.92,4.5-5.09,4.86-8.64.28-2.89-1.12-4.83-3.87-5.76a17.63,17.63,0,0,0-5.78-.73l-22.08,0c-.82,0-1.72,0-1.85-1.06S430.85,236,431.7,235.69Zm-4.45,3.64.33.35.41.28a14.5,14.5,0,0,0,4.1.45c7.29,0,14.58,0,21.88,0,2.11,0,4.26,0,6.15,1.21a1.81,1.81,0,0,1,1,1.07c1.21,2.29.21,4.34-.7,6.41l-.37.67-.23.43c-.16.2-.33.39-.49.58l-.33.37-.36.32-.58.47-.44.25a.59.59,0,0,1-.22.25c-5,1.75-10.15,1.72-15.32,1.74-8.56,0-17.12.31-25.67-.27-1-.07-2-.29-3.05-.43-.2-.37-.93-.31-.77-1l0,0c-.26,0-.35-.14-.35-.38a1.73,1.73,0,0,1-.65-1.32c-.36-1.86-.18-2.07,1.72-2.07h10.87a1.49,1.49,0,0,1,1.55.71c.64,1,1.9.94,3,.95,6.15.09,12.3.36,18.43-.32l1.22-1.08c.09-.19.2-.37.44-.37a.65.65,0,0,1,.4-.66c.83-3.29.08-4.46-3.45-4.52-8-.13-15.93-.06-23.89-.11-1.51,0-3.1.19-4.43-.85v0a.63.63,0,0,1-.7-.38h0l-.37-.35h0c-2.3-2.06-1.23-4.32-.41-6.57.54-.54.73-1.37,1.46-1.75h0l.36-.35h0c.14-.28.33-.47.67-.37,0-.27.14-.33.36-.34a.56.56,0,0,1,.69-.35h0a11.44,11.44,0,0,1,6.06-1.62,259.3,259.3,0,0,1,34.48,0c1,.07,2.2,0,3,.95l0,0c.61-.08.8.54,1.22.77a2,2,0,0,0,1.23-.13,2,2,0,0,1-1.23.13l.37,1a.92.92,0,0,1,0,1.06c-.2.74-.79.69-1.37.69l-10.85,0c-.52,0-1.11.21-1.34-.65-.18-.63-1-.61-1.49-.63a133.4,133.4,0,0,0-17.2.13,8.06,8.06,0,0,0-4.13,1.57l-.4.29c-.11.23-.21.47-.32.7-.22.57-.25,1.24-.74,1.69v.63Z" transform="translate(-24.91 -165.94)"/><path class="cls-4" d="M463.15,231.38c.61-.08.8.54,1.22.77.12.33.25.67.37,1a1.39,1.39,0,0,0,0,1.06c-.2.74-.79.69-1.37.69l-10.85,0c-.52,0-1.11.21-1.34-.65-.18-.63-1-.61-1.49-.63a133.4,133.4,0,0,0-17.2.13,8.06,8.06,0,0,0-4.13,1.57,1.29,1.29,0,0,0-.17-.16c1-1.59,2.72-1.77,4.34-2,5-.67,10-.3,14.95-.3,1.54,0,3.25-.09,4.41,1.4.3.4.86.23,1.3.23,3.16,0,6.32,0,9.48,0,.48,0,1.12.23,1.38-.37a1.74,1.74,0,0,0-.21-1.8C463.59,232,463.37,231.7,463.15,231.38Z" transform="translate(-24.91 -165.94)"/><path class="cls-4" d="M457.43,252.48c-5,1.75-10.15,1.72-15.32,1.74-8.56,0-17.12.31-25.67-.27-1-.07-2-.29-3.05-.43-.2-.37-.93-.31-.77-1,3.67,1.35,7.51,1.28,11.33,1.3,6.21,0,12.43.18,18.63-.05,5-.18,10.1-.05,14.95-1.72l.12.14A.59.59,0,0,1,457.43,252.48Z" transform="translate(-24.91 -165.94)"/><path class="cls-4" d="M428,240a14.5,14.5,0,0,0,4.1.45c7.29,0,14.58,0,21.88,0,2.11,0,4.26,0,6.15,1.21l-.16.18c-1.14-.11-2.15-.74-3.34-.76-5.51-.07-11-.22-16.53-.3-3.27-.05-6.55,0-9.83,0a3,3,0,0,1-2.41-.66Z" transform="translate(-24.91 -165.94)"/><path class="cls-4" d="M461.15,242.73c1.21,2.29.21,4.34-.7,6.41l-.15-.13a14.69,14.69,0,0,0,.68-6.14Z" transform="translate(-24.91 -165.94)"/><path class="cls-4" d="M427.62,236.34c-.22.58-.25,1.24-.74,1.69l-.06-.05c0-.67,0-1.33.64-1.76Z" transform="translate(-24.91 -165.94)"/><path class="cls-4" d="M460.12,241.66a1.81,1.81,0,0,1,1,1.07l-.17.14-1-1Z" transform="translate(-24.91 -165.94)"/><path class="cls-5" d="M464.72,234.22a1.39,1.39,0,0,1,0-1.06A.92.92,0,0,1,464.72,234.22Z" transform="translate(-24.91 -165.94)"/><path class="cls-4" d="M458.67,251.52l-.58.46-.18-.2.65-.39Z" transform="translate(-24.91 -165.94)"/><path class="cls-4" d="M426.88,238v.63l-.07.05c-.3-.25-.3-.49,0-.73Z" transform="translate(-24.91 -165.94)"/><path class="cls-4" d="M427.94,235.64c-.11.23-.21.47-.32.7l-.15-.12.38-.67Z" transform="translate(-24.91 -165.94)"/><path class="cls-4" d="M426.88,238.66l.37.67-.12.11-.32-.73Z" transform="translate(-24.91 -165.94)"/><path class="cls-4" d="M459.85,250.24c-.16.2-.33.39-.49.58l-.12-.11.39-.65A1.24,1.24,0,0,0,459.85,250.24Z" transform="translate(-24.91 -165.94)"/><path class="cls-4" d="M460.45,249.14l-.37.67-.14-.12.36-.68Z" transform="translate(-24.91 -165.94)"/><path class="cls-4" d="M460.08,249.81l-.23.43a1.24,1.24,0,0,1-.22-.18l.31-.37Z" transform="translate(-24.91 -165.94)"/><path class="cls-4" d="M428.34,235.35l-.4.29-.09-.09.32-.36A1.29,1.29,0,0,1,428.34,235.35Z" transform="translate(-24.91 -165.94)"/><path class="cls-4" d="M459.36,250.82l-.33.37-.12-.13.33-.35Z" transform="translate(-24.91 -165.94)"/><path class="cls-4" d="M459,251.19l-.36.32-.11-.12.35-.33Z" transform="translate(-24.91 -165.94)"/><path class="cls-4" d="M458.09,252l-.44.25-.12-.14.38-.31Z" transform="translate(-24.91 -165.94)"/><path class="cls-4" d="M427.58,239.68l.41.28-.14.15-.38-.32Z" transform="translate(-24.91 -165.94)"/><path class="cls-4" d="M427.25,239.33l.33.35-.11.11-.34-.35Z" transform="translate(-24.91 -165.94)"/><path class="cls-6" d="M427.13,239.44l.34.35.38.32a3,3,0,0,0,2.41.66c3.28,0,6.56,0,9.83,0,5.51.08,11,.23,16.53.3,1.19,0,2.2.65,3.34.76l1,1a14.69,14.69,0,0,1-.68,6.14l-.36.68-.31.37-.39.65-.33.35-.35.33-.65.39-.38.31c-4.85,1.67-9.94,1.54-14.95,1.72-6.2.23-12.42.08-18.63.05-3.82,0-7.66,0-11.33-1.3l0,0c-.11-.13-.23-.25-.35-.38h0a2.4,2.4,0,0,0,0-.85c-.74-1.75.07-2,1.63-2,3.22.09,6.44,0,9.65,0,.56,0,1.19-.16,1.64.31,1.23,1.31,2.89,1.34,4.47,1.37,4.19.08,8.39.14,12.57,0,1.65-.06,3.46.17,4.95-.93l1.22-1.08a.48.48,0,0,0,.49-.37h-.05c.39-.07.44-.35.4-.68v0c1.39-1.58,1-3.75-.84-4.47a9.72,9.72,0,0,0-3.35-.69c-9.19-.17-18.39.39-27.57-.33v0c-.1-.36-.38-.41-.7-.38h0l-.37-.35h0a8.43,8.43,0,0,1-.61-4.63c.26-1.38,1.42-2.32,1.66-3.69h0l.36-.35h0a.58.58,0,0,0,.68-.37h0l.36-.35h0c.31,0,.57,0,.69-.36h0a53.49,53.49,0,0,1,13.72-1.63c9.95,0,19.92-.68,29.82.93l0,0c.22.32.44.66.67,1a1.74,1.74,0,0,1,.21,1.8c-.26.6-.9.37-1.38.37-3.16,0-6.32,0-9.48,0-.44,0-1,.17-1.3-.23-1.16-1.49-2.87-1.39-4.41-1.4-5,0-10-.37-14.95.3-1.62.23-3.32.41-4.34,2l-.32.36-.38.67c-.66.43-.66,1.09-.65,1.76-.31.24-.31.48,0,.73C426.92,239,427,239.19,427.13,239.44Z" transform="translate(-24.91 -165.94)"/><path class="cls-4" d="M447.21,250.1c-1.49,1.1-3.3.87-4.95.93-4.18.16-8.38.1-12.57,0-1.58,0-3.24-.06-4.47-1.37-.45-.47-1.08-.31-1.64-.31-3.21,0-6.43,0-9.65,0-1.56,0-2.37.24-1.63,2a2.4,2.4,0,0,1,0,.85,1.7,1.7,0,0,1-.66-1.33c-.36-1.86-.18-2.07,1.72-2.07h10.87a1.49,1.49,0,0,1,1.55.71c.64,1,1.9.94,3,.95C434.93,250.51,441.08,250.78,447.21,250.1Z" transform="translate(-24.91 -165.94)"/><path class="cls-4" d="M417.5,242.51c9.18.72,18.38.16,27.57.33a9.72,9.72,0,0,1,3.35.69c1.85.72,2.23,2.89.84,4.47.84-3.3.09-4.47-3.44-4.53-8-.13-15.93-.06-23.89-.11C420.42,243.35,418.83,243.55,417.5,242.51Z" transform="translate(-24.91 -165.94)"/><path class="cls-4" d="M417.52,233.5c-.24,1.37-1.4,2.31-1.66,3.69a8.43,8.43,0,0,0,.61,4.63c-2.3-2.06-1.23-4.32-.41-6.57C416.6,234.71,416.79,233.88,417.52,233.5Z" transform="translate(-24.91 -165.94)"/><path class="cls-4" d="M416.81,242.15c.32,0,.6,0,.7.38A.63.63,0,0,1,416.81,242.15Z" transform="translate(-24.91 -165.94)"/><path class="cls-4" d="M449.27,248c0,.33,0,.61-.4.68A.64.64,0,0,1,449.27,248Z" transform="translate(-24.91 -165.94)"/><path class="cls-4" d="M448.92,248.65a.48.48,0,0,1-.49.37C448.53,248.81,448.64,248.62,448.92,248.65Z" transform="translate(-24.91 -165.94)"/><path class="cls-4" d="M416.46,241.81l.37.35Z" transform="translate(-24.91 -165.94)"/><path class="cls-4" d="M412.31,252.16c.12.13.24.25.35.38C412.4,252.54,412.31,252.4,412.31,252.16Z" transform="translate(-24.91 -165.94)"/><path class="cls-7" d="M463.12,231.41c-9.9-1.61-19.87-1-29.82-.93a53.49,53.49,0,0,0-13.72,1.63,11.44,11.44,0,0,1,6.06-1.62,259.3,259.3,0,0,1,34.48,0C461.15,230.53,462.32,230.47,463.12,231.41Z" transform="translate(-24.91 -165.94)"/><path class="cls-4" d="M419.58,232.1c-.12.34-.38.39-.69.36A.56.56,0,0,1,419.58,232.1Z" transform="translate(-24.91 -165.94)"/><path class="cls-4" d="M418.54,232.79a.58.58,0,0,1-.68.37C418,232.88,418.19,232.69,418.54,232.79Z" transform="translate(-24.91 -165.94)"/><path class="cls-4" d="M418.89,232.45l-.36.35C418.49,232.52,418.67,232.46,418.89,232.45Z" transform="translate(-24.91 -165.94)"/><path class="cls-4" d="M417.87,233.16l-.36.35Z" transform="translate(-24.91 -165.94)"/><path class="cls-4" d="M360.58,252.82c-.29.46-.74.45-1.21.46l-9.65.14c-.2,0-.4-.17-.61-.25,1.23-3.79,2.47-7.56,3.67-11.35,1-3,1.9-6.11,2.84-9.16.34-1.57,1.33-1.87,2.85-1.86,12.86.07,25.72,0,38.57.06a10.68,10.68,0,0,1,5.31.9l-.08.09a28.65,28.65,0,0,0-5.47-.45c-4.78,0-9.55,0-14.33,0H358.13c-.76,0-1.47-.19-1.83,1-2,6.42-4.05,12.8-6.13,19.18-.32,1-.14,1.33.93,1.3,2.07-.06,4.15,0,6.22,0,3.28-.07,2.38.58,3.6-2.64.76-2,1.05-4.23,2.32-6.05l.12.11Z" transform="translate(-24.91 -165.94)"/><path class="cls-4" d="M404.07,234.56a7.94,7.94,0,0,1-1.33,3.85l-.14-.12c.52-1.9,1.33-3.79.38-5.78l.2-.2.67.86c.07.23.13.45.19.68Z" transform="translate(-24.91 -165.94)"/><path class="cls-8" d="M404,233.85c-.06-.23-.12-.45-.19-.68C404.25,233.3,404.59,233.45,404,233.85Z" transform="translate(-24.91 -165.94)"/><path class="cls-4" d="M402.81,232l.37.33-.2.2-.34-.35A1.45,1.45,0,0,0,402.81,232Z" transform="translate(-24.91 -165.94)"/><path class="cls-4" d="M402.35,231.76l.46.22a1.45,1.45,0,0,1-.17.18l-.37-.31Z" transform="translate(-24.91 -165.94)"/><path class="cls-4" d="M399.66,253c-.2.11-.39.33-.58.33a99.46,99.46,0,0,1-12.21-.13c.41-1.6.85-3.19,1.24-4.78a3.31,3.31,0,0,0-.34-2.79l.11-.13c1.2.61,1.05,1.66.83,2.68-.27,1.23-.58,2.45-.91,3.66-.18.7-.07,1,.78,1,3.21,0,6.42,0,9.62,0a1,1,0,0,0,1-.47c1.07-1.72.88-6-.38-7.44,0,0,.09-.1.13-.16a2.45,2.45,0,0,1,1.55,2.89C400.29,249.47,400,251.24,399.66,253Z" transform="translate(-24.91 -165.94)"/><path class="cls-4" d="M387.4,245.33a10.59,10.59,0,0,0-5.13-1.17c-6.3,0-12.61-.16-18.91.11l-.12-.11c.28-.86,1-.6,1.6-.6,5.93,0,11.85-.05,17.77,0,1.76,0,3.57.2,4.92,1.61Z" transform="translate(-24.91 -165.94)"/><path class="cls-4" d="M387.77,245.65l-.37-.32.13-.14.35.33Z" transform="translate(-24.91 -165.94)"/><path class="cls-4" d="M400.69,240.51c-1.67,1.41-3.75,1.44-5.76,1.73l-2.54.31-.12-.1c.34-.59.9-.63,1.49-.64a17.73,17.73,0,0,0,6.8-1.45Z" transform="translate(-24.91 -165.94)"/><path class="cls-4" d="M392.39,242.55c.21.78.89.56,1.41.66a13.36,13.36,0,0,1,5.17,1.58c0,.06-.09.11-.13.16-1.86-.44-3.73-.84-5.58-1.34-.51-.13-1.61,0-1-1.16Z" transform="translate(-24.91 -165.94)"/><path class="cls-4" d="M402.38,238.74a2.47,2.47,0,0,1-1.28,1.48l-.18-.18,1.38-1.38Z" transform="translate(-24.91 -165.94)"/><path class="cls-4" d="M401.1,240.22l-.41.29-.13-.15.36-.32Z" transform="translate(-24.91 -165.94)"/><path class="cls-4" d="M402.74,238.41l-.36.33-.08-.08.3-.37Z" transform="translate(-24.91 -165.94)"/><path class="cls-6" d="M402.6,238.29l-.3.37L400.92,240l-.36.32a17.73,17.73,0,0,1-6.8,1.45c-.59,0-1.15.05-1.49.64-.62,1.18.48,1,1,1.16,1.85.5,3.72.9,5.58,1.34,1.26,1.45,1.45,5.72.38,7.44a1,1,0,0,1-1,.47c-3.2,0-6.41,0-9.62,0-.85,0-1-.32-.78-1,.33-1.21.64-2.43.91-3.66.22-1,.37-2.07-.83-2.68l-.35-.33c-1.35-1.41-3.16-1.59-4.92-1.61-5.92-.07-11.84,0-17.77,0-.58,0-1.32-.26-1.6.6-1.27,1.82-1.56,4-2.32,6.05-1.22,3.22-.32,2.57-3.6,2.64-2.07,0-4.15,0-6.22,0-1.07,0-1.25-.3-.93-1.3,2.08-6.38,4.16-12.76,6.13-19.18.36-1.17,1.07-1,1.83-1h24.34c4.78,0,9.55,0,14.33,0a28.65,28.65,0,0,1,5.47.45l.37.31.34.35C403.93,234.5,403.12,236.39,402.6,238.29Zm-11.26.8c1.48-2.06,1.36-3.84-.35-5a1.61,1.61,0,0,0-1.35-.61c-2.34-.1-4.69-.31-7-.3-4.82,0-9.63-.12-14.45.21-1.54.1-2.34.49-2.55,2-.06.51-.18,1-.27,1.52-.78.9-.82,2.12-1.29,3.15s-.24,1.4,1,1.39c7.37,0,14.73,0,22.09,0a3.57,3.57,0,0,0,2.84-1A1.74,1.74,0,0,0,391.34,239.09Z" transform="translate(-24.91 -165.94)"/><path class="cls-4" d="M365.34,236.94c.09-.51.21-1,.27-1.52.21-1.5,1-1.89,2.55-2,4.82-.33,9.63-.21,14.45-.21,2.34,0,4.69.2,7,.3a1.61,1.61,0,0,1,1.35.61l-.15.19a19.51,19.51,0,0,0-4.44-.44c-5.44,0-10.88.13-16.32-.06-2.38-.08-4.12.18-4.43,2.94,0,.09-.15.16-.24.23Z" transform="translate(-24.91 -165.94)"/><path class="cls-4" d="M390,240.47a3.57,3.57,0,0,1-2.84,1c-7.36,0-14.72,0-22.09,0-1.21,0-1.42-.39-1-1.39s.51-2.25,1.29-3.15l.07.05c0,1.4-.87,2.59-1,4.09h1.74c6.25,0,12.51,0,18.77,0a13.78,13.78,0,0,0,4.89-.79Z" transform="translate(-24.91 -165.94)"/><path class="cls-4" d="M391,234.13c1.71,1.12,1.83,2.9.35,5l-.15-.13c.49-1.6,1.37-3.22-.35-4.64Z" transform="translate(-24.91 -165.94)"/><path class="cls-4" d="M391.34,239.09a1.74,1.74,0,0,1-1.39,1.38l-.14-.16,1.38-1.35Z" transform="translate(-24.91 -165.94)"/><path class="cls-8" d="M406.17,234.87c.14-2.7-1-4.45-3.41-5.17a17.55,17.55,0,0,0-5.05-.64q-20.19,0-40.38,0c-3,0-3,0-3.76,3-.28.85-.56,1.69-.83,2.54q-3,9.44-6,18.87c-.91,1.43-.41,1.77,1.13,1.74,4.11-.09,8.23-.13,12.34,0,1.54,0,2.38-.37,2.43-2,.22-.59.45-1.17.67-1.76.64-1.78.81-4.12,2.06-5.17s3.75-.32,5.68-.34c3.86-.05,7.71,0,11.57,0,2.75,0,3.54,1.19,2.85,3.88-.28,1.1-.47,2.21-.7,3.32.19.69-1.64,2,.47,2.06,5,.09,10,0,15,0,1.13,0,1.2-.55,1.08-1.39.92-1.69,1-3.61,1.34-5.44a5.22,5.22,0,0,0-.15-3.22,3.63,3.63,0,0,0-2.74-1.86C405.27,240,405.89,238.11,406.17,234.87Zm-51.15-2a1.33,1.33,0,0,1-.78-.19A1.33,1.33,0,0,0,355,232.83Zm47.36,5.91a2.47,2.47,0,0,1-1.28,1.48l-.41.29c-1.67,1.41-3.75,1.44-5.76,1.73l-2.54.31c.21.78.89.56,1.41.66a13.36,13.36,0,0,1,5.17,1.58,2.45,2.45,0,0,1,1.55,2.89c-.23,1.79-.57,3.56-.86,5.34-.2.11-.39.33-.58.33a99.46,99.46,0,0,1-12.21-.13,1.1,1.1,0,0,0-.26-.14,1.6,1.6,0,0,0-.77-.12,3.28,3.28,0,0,0-.52.08,3.28,3.28,0,0,1,.52-.08,1.6,1.6,0,0,1,.77.12,1.1,1.1,0,0,1,.26.14c.41-1.6.85-3.19,1.24-4.78a3.31,3.31,0,0,0-.34-2.79l-.37-.32a10.59,10.59,0,0,0-5.13-1.17c-6.3,0-12.61-.16-18.91.11q-1.38,4.28-2.78,8.55c-.29.46-.74.45-1.21.46l-9.65.14c-.2,0-.4-.17-.61-.25l-.31-.09.31.09c1.23-3.79,2.47-7.56,3.67-11.35,1-3,1.9-6.11,2.84-9.16h0c.34-1.57,1.33-1.87,2.85-1.86,12.86.07,25.72,0,38.57.06a10.68,10.68,0,0,1,5.31.9l.46.22.37.33.67.86c.4.13.74.28.19.68l0,.71a7.94,7.94,0,0,1-1.33,3.85Z" transform="translate(-24.91 -165.94)"/><path class="cls-8" d="M390.84,234.32a19.51,19.51,0,0,0-4.44-.44c-5.44,0-10.88.13-16.32-.06-2.38-.08-4.12.18-4.43,2.94,0,.09-.15.16-.24.23,0,1.4-.87,2.59-1,4.09h1.74c6.25,0,12.51,0,18.77,0a13.78,13.78,0,0,0,4.89-.79l1.38-1.36C391.68,237.36,392.56,235.74,390.84,234.32Zm-3.74,4.84c-2.92.12-5.85.1-8.78.13-.34,0-.69,0-1,0-2.93,0-5.86,0-8.78,0-1.09,0-1.16-.26-.94-1.27.39-1.82,1.14-2.57,3.2-2.5,5.39.18,10.8,0,16.19,0,1,0,2.37-.3,2.49,1.13A2.23,2.23,0,0,1,387.1,239.16Z" transform="translate(-24.91 -165.94)"/></svg>