<svg id="Layer_1" data-name="Layer 1" xmlns="http://www.w3.org/2000/svg" viewBox="0 0 469.13 88.91"><defs><style>.cls-1{fill:#ededed;}.cls-2{fill:#050505;}.cls-3{fill:#fff;}.cls-4{fill:#92462e;}.cls-5{fill:#babbbb;}.cls-6{fill:#f42111;}.cls-7{fill:#da3726;}.cls-8{fill:#f3f2f2;}</style></defs><path d="M355,267.82c.35-3.61.35-3.61,3.52-3.61,5.14,0,10.28,0,15.42,0,1.08,0,2.65-.33,2.67,1.35s-1.32,2.17-2.75,2.19c-4.49.06-9,.06-13.46.08Z" transform="translate(-15.43 -205.54)"/><path class="cls-1" d="M59.9,292.43c-7,0-13.93,0-20.9,0a32.9,32.9,0,0,1-7.32-1.05c-9.68-2.26-15.12-8.71-15.77-18.67-.8-12.16,6.28-20.63,18.51-22.19a74.15,74.15,0,0,1,9.42-.51q17.53,0,35.07,0c1,0,2.3-.37,2.7,1a5.49,5.49,0,0,1-.11,4c-.49,1-1.57.69-2.43.69-9,0-18,0-27,.11a58.48,58.48,0,0,0-10.73.94c-6.25,1.23-9.52,4.63-10.45,10.95a19.4,19.4,0,0,0,.83,9.53,12.29,12.29,0,0,0,10.42,8.42,94.23,94.23,0,0,0,13.22.8c9,.05,18,0,27,0,2.52,0,2.63.26,2.71,3.19.06,1.95-.38,3.1-2.7,3.07-7.49-.09-15,0-22.48,0Z" transform="translate(-15.43 -205.54)"/><path class="cls-1" d="M280.8,292.41c-7.11,0-14.23,0-21.35,0a30.33,30.33,0,0,1-7.31-1.13c-9.58-2.41-14.85-8.85-15.4-18.72-.68-12.12,6.35-20.48,18.45-22a76,76,0,0,1,9.65-.52q17.42,0,34.84,0c.93,0,2.15-.39,2.64.71a5.32,5.32,0,0,1,0,4.16c-.42,1.06-1.53.73-2.39.73-7.94,0-15.89,0-23.83,0a73.8,73.8,0,0,0-14.31,1.11c-5.67,1.17-8.88,4.46-9.94,10.15-1.47,8,1.34,14.72,7.42,17.64,2.64,1.27,5.53,1.31,8.35,1.48,11.53.68,23.07.24,34.61.35,3.55,0,4.43,1.17,3.63,4.71-.37,1.62-1.61,1.52-2.82,1.52H280.8Z" transform="translate(-15.43 -205.54)"/><path class="cls-2" d="M478.85,269.3a16.61,16.61,0,0,1-11,23.44c-5.56,1.42-11.28,1.42-17,1.57-11.3.29-22.61.1-33.92-.18a37.1,37.1,0,0,1-5.36-.5c-6.32-1.13-10.05-6.24-9.18-12.5.26-1.84,0-4.27,1.11-5.32s3.41-.26,5.2-.31a4.64,4.64,0,0,0,.65-.11c0-.16.17-.35.13-.42-4.7-6.82-.82-18.64,8.78-21.88a39.13,39.13,0,0,1,10.57-2c14.89-.69,29.79-1,44.68.23a16.83,16.83,0,0,1,4.59,1,9.69,9.69,0,0,1,5.92,12.4c0,.15-.12.28-.18.42C482.53,268.75,482.53,268.75,478.85,269.3Zm-65.94-7.1c-4.25,7.68-.7,14,8,14.31.6,0,1.2,0,1.8,0q14.93,0,29.86,0c1.22,0,2.91-.33,2.92,1.51a2.68,2.68,0,0,1-2.77,2.69c-1.12.09-2.24.29-3.35.3-4.19,0-8.39.1-12.57,0-2.08,0-4.44.59-5.94-1.7-.13-.19-.7-.12-1.07-.12q-11.12,0-22.23,0c-.54,0-1.25-.27-1.36.7-.32,2.85-.55,5.68,1.79,7.94,1.94,2.15,4.61,2.41,7.19,2.48,14.28.4,28.56.58,42.84,0,4.28-.18,8.7-.28,12.58-2.63,4.32-2.5,5.86-6.63,6.32-11.25.37-3.76-1.45-6.29-5-7.51a23.14,23.14,0,0,0-7.54-.94l-28.75,0c-1.08,0-2.24,0-2.41-1.38s.77-2.06,1.89-2.46a8.52,8.52,0,0,1,2.2-.38c5.83-.44,11.67-.29,17.51-.21.84,0,1.82.16,2.16.95.5,1.16,1.38.93,2.24.93l17.74,0c3.06,0,4.58-2,3.78-4.95a12.17,12.17,0,0,0-.76-1.79c-1.34-3-4.2-3.38-6.93-3.6-14.36-1.16-28.75-.78-43.13-.29a34.73,34.73,0,0,0-9.94,1.66C416.89,257.46,414.27,259.07,412.91,262.2Z" transform="translate(-15.43 -205.54)"/><path class="cls-1" d="M161.63,292.8c-10,.23-10,.24-15.57-7.91q-10.45-15.27-20.86-30.56a16.87,16.87,0,0,1-1-1.51c-.82-1.58-.29-2.78,1.47-2.82,4.19-.09,8.38,0,12.58.05,1.37,0,2,1.12,2.69,2.12l19.7,28.9c.59.87,1.18,1.74,1.82,2.56,2.11,2.69,4.61,2.7,6.57-.15,6.23-9.05,12.38-18.16,18.55-27.24A12.82,12.82,0,0,0,189.1,254c1.56-3.83,4.55-4.44,8.2-3.95,2.21.29,2.59.77,1.35,2.62-3,4.41-6,8.78-9,13.15-5,7.34-10.21,14.58-15,22.06-2.38,3.7-5.29,5.49-9.66,4.94A27.06,27.06,0,0,0,161.63,292.8Z" transform="translate(-15.43 -205.54)"/><path class="cls-2" d="M318.61,293.18l7.59-23.76c1.7-5.33,3.43-10.66,5.08-16a1.89,1.89,0,0,1,2.16-1.61q29.57.07,59.11,0l.9,0c5,.31,9.53,1.56,11.41,6.75,1.93,5.36.37,10.19-3.45,14.23-1,1-1.23,1.69-.66,3,.89,2.08.46,4.3.05,6.43-.63,3.22-1.44,6.42-2.05,9.65-.2,1-.64,1.31-1.63,1.31q-13.61,0-27.2.1c-1.25,0-1.29-.41-1-1.43.77-3,1.41-6,2.19-8.93.35-1.3.2-1.86-1.36-1.84q-8.66.11-17.31,0c-1.24,0-1.49.64-1.79,1.53q-1.51,4.58-3.07,9.13c-.23.68-.3,1.43-1.38,1.43C337.05,293.16,327.92,293.18,318.61,293.18Zm5.86-5.85c-1.19,1.85-.53,2.3,1.47,2.25,5.35-.11,10.71-.16,16.07,0,2,.05,3.11-.48,3.17-2.57.29-.76.58-1.52.86-2.29.85-2.31,1.06-5.36,2.69-6.74s4.88-.41,7.4-.44c5-.07,10.05,0,15.07,0,3.58,0,4.62,1.55,3.72,5.06-.37,1.42-.62,2.88-.93,4.32.26.89-2.12,2.62.63,2.68,6.51.12,13,0,19.54,0,1.47,0,1.56-.72,1.41-1.8,1.2-2.21,1.27-4.71,1.75-7.09a6.86,6.86,0,0,0-.2-4.2c-.64-1.44-2-2-3.57-2.42,7.1-4.34,7.91-6.8,8.27-11,.19-3.52-1.34-5.8-4.44-6.73a22.41,22.41,0,0,0-6.57-.84q-26.31,0-52.6,0c-3.86,0-3.86,0-4.9,3.9-.36,1.11-.73,2.21-1.08,3.31Q328.35,275,324.47,287.33Z" transform="translate(-15.43 -205.54)"/><path class="cls-1" d="M224.34,271.33c0,5.91,0,11.83,0,17.74,0,2.89-.34,3.31-3.14,3.4s-5.54,0-8.3,0a2.19,2.19,0,0,1-2.45-2.52q0-18.75,0-37.5c0-1.77.84-2.67,2.57-2.68q4.38,0,8.76,0c2.07,0,2.6,1.29,2.59,3.13C224.32,259.05,224.35,265.19,224.34,271.33Z" transform="translate(-15.43 -205.54)"/><path class="cls-1" d="M97.7,271.2q0-9,0-18c0-2.87.47-3.4,3.38-3.48,2.62-.07,5.24,0,7.87,0,1.81,0,2.69.92,2.68,2.82q0,18.53,0,37.06c0,1.83-.67,2.84-2.62,2.82-2.84,0-5.69,0-8.53,0-2,0-2.82-.88-2.81-2.88C97.74,283.48,97.7,277.34,97.7,271.2Z" transform="translate(-15.43 -205.54)"/><path class="cls-1" d="M158,220.38q3.86-6.48,7.68-13c.55-.94,1.05-1.62,2.38-1.59,2.89.08,2.87,0,3.06,3,.25,3.8.54,7.6.86,12,1-1.69,1.71-2.91,2.42-4.14,1.68-2.91,3.5-5.75,5-8.76a3.17,3.17,0,0,1,3.66-2c.93.1,1.89,0,3.16,0-.67,1.17-1.15,2.07-1.68,2.93q-5.59,9.19-11.2,18.36c-.65,1.07-4.16,1.88-5.16,1.21-.55-.37-.31-1-.35-1.43-.34-4-.64-8-1-12.67-1.49,2.4-2.67,4.3-3.84,6.21-1.36,2.23-2.76,4.44-4.06,6.71a2.31,2.31,0,0,1-2.31,1.31c-3,0-3,0-3.28-3-.47-6-.82-12.1-1.32-18.14-.1-1.22.18-1.51,1.37-1.53,3.71-.09,3.76-.14,3.81,3.48s0,7.25,0,10.88Z" transform="translate(-15.43 -205.54)"/><path class="cls-1" d="M115.53,220c1.13-4.17,2.29-7.81,3.07-11.53.44-2.11,1.35-2.89,3.42-2.53a14.94,14.94,0,0,0,2.25,0c-1.43,5.35-2.82,10.58-4.22,15.82a23.7,23.7,0,0,0-1,3.88c-.22,2.41-1.42,3.07-3.69,2.82a2,2,0,0,1-1.95-1.39c-1.93-4.27-3.94-8.51-6.12-13.2-1.13,4.14-2.16,7.88-3.18,11.63-.76,2.8-2.15,3.58-4.9,2.93-.87-.2-.65-.68-.52-1.14,1.8-6.78,3.64-13.56,5.43-20.34a1.23,1.23,0,0,1,1.66-1c1.31.29,3-.87,3.86,1.18,1.62,3.77,3.41,7.46,5.13,11.19C114.91,218.7,115.1,219.09,115.53,220Z" transform="translate(-15.43 -205.54)"/><path class="cls-1" d="M125.14,228.39c2-7.31,3.91-14.43,5.8-21.57.2-.76.59-.91,1.27-.9,4.87,0,9.74,0,14.61,0,1.14,0,1.13.35.9,1.3-.78,3.17-.73,3.19-4.05,3.19-2.4,0-4.8,0-7.2,0-1.17,0-3.05,3.17-2.48,4.18.32.55.94.33,1.44.34,2.39,0,4.79,0,7.19,0,1.12,0,1.53,0,1.24,1.45-.47,2.25-1.35,3.31-3.84,3a42.56,42.56,0,0,0-6.29,0c-1,0-2.81,3.71-2.17,4.43.22.25.81.22,1.23.22,3,0,6,.06,9,0,1.19,0,1.52.19,1.25,1.48-.44,2.15-1.15,3.26-3.76,3.09C134.65,228.17,130,228.39,125.14,228.39Z" transform="translate(-15.43 -205.54)"/><path class="cls-1" d="M15.43,228.39l2.48-3.59,12.16-17.5c.93-1.34,4.19-2.2,5.55-1.52.52.27.44.72.51,1.14,1,6.65,2.08,13.3,3.18,19.94.2,1.2,0,1.71-1.27,1.54a5.89,5.89,0,0,0-1.57,0c-1.53.23-2.22-.21-2.38-1.94-.29-3.11-.44-3.09-3.54-3.09a8.2,8.2,0,0,1-1.57,0c-3.46-.68-5.9.54-7.29,3.8a2,2,0,0,1-2.34,1.26C18.23,228.32,17.1,228.39,15.43,228.39Zm16.64-16.73-4.73,7.13c5.75.45,5.75.45,5.12-4.73C32.38,213.41,32.25,212.77,32.07,211.66Z" transform="translate(-15.43 -205.54)"/><path class="cls-1" d="M43.8,228.39c2-7.27,3.9-14.32,5.72-21.39.35-1.35,1.22-1.05,2.06-1.07,3.28-.05,3.29,0,2.47,3-1.14,4.26-2.23,8.53-3.47,12.76-.46,1.59-.38,2.27,1.56,2.14,2.61-.16,5.24,0,7.86-.06,1,0,1.21.19.93,1.26-.86,3.31-.79,3.33-4.16,3.33Z" transform="translate(-15.43 -205.54)"/><path class="cls-1" d="M82.82,223.82c-1.08,4.57-1.08,4.57-5.36,4.57-3.52,0-7,0-10.55,0-1.19,0-1.41-.33-1.11-1.41q2.72-9.94,5.36-19.9c.56-2.12,2.19-.91,3.33-1.16,1.8-.41,2.06.32,1.56,2-1.36,4.58-2.45,9.24-3.82,13.82-.55,1.82-.06,2.16,1.67,2.09C76.81,223.73,79.73,223.82,82.82,223.82Z" transform="translate(-15.43 -205.54)"/><polygon class="cls-3" points="402.96 54.38 402.95 54.38 402.95 54.38 402.96 54.38"/><path class="cls-3" d="M417.93,260.36Z" transform="translate(-15.43 -205.54)"/><path class="cls-3" d="M457.5,281h-.06Z" transform="translate(-15.43 -205.54)"/><path class="cls-3" d="M458,280.15h0Z" transform="translate(-15.43 -205.54)"/><path class="cls-3" d="M409.82,285.59Z" transform="translate(-15.43 -205.54)"/><path class="cls-3" d="M435.08,264.13a8.52,8.52,0,0,1,2.2-.38c5.83-.44,11.67-.29,17.51-.21.84,0,1.82.16,2.16.95.5,1.16,1.38.93,2.24.93l17.74,0c3.06,0,4.58-2,3.78-4.95a12.17,12.17,0,0,0-.76-1.79c-1.34-3-4.2-3.38-6.93-3.6-14.36-1.16-28.75-.78-43.13-.29a34.73,34.73,0,0,0-9.94,1.66c-3.06,1-5.68,2.66-7,5.79-4.25,7.68-.7,14,8,14.31.6,0,1.2,0,1.8,0q14.93,0,29.86,0c1.22,0,2.91-.33,2.92,1.51a2.68,2.68,0,0,1-2.77,2.69c-1.12.09-2.24.29-3.35.3-4.19,0-8.39.1-12.57,0-2.08,0-4.44.59-5.94-1.7-.13-.19-.7-.12-1.07-.12q-11.12,0-22.23,0c-.54,0-1.25-.27-1.36.7-.32,2.85-.55,5.68,1.79,7.94,1.94,2.15,4.61,2.41,7.19,2.48,14.28.4,28.56.58,42.84,0,4.28-.18,8.7-.28,12.58-2.63,4.32-2.5,5.86-6.63,6.32-11.25.37-3.76-1.45-6.29-5-7.51a23.14,23.14,0,0,0-7.54-.94l-28.75,0c-1.08,0-2.24,0-2.41-1.38S434,264.53,435.08,264.13Zm-5.81,4.75c.15.15.29.3.43.46l.55.36a18.72,18.72,0,0,0,5.33.59c9.5,0,19,0,28.5,0,2.75,0,5.55,0,8,1.57a2.42,2.42,0,0,1,1.35,1.4c1.56,3,.27,5.66-.92,8.34l-.48.88-.3.56-.63.76-.43.47-.48.43-.76.61-.56.32a.91.91,0,0,1-.29.33c-6.48,2.28-13.23,2.24-19.95,2.26-11.15.05-22.3.41-33.44-.35-1.33-.09-2.65-.37-4-.57-.26-.47-1.21-.39-1-1.24l.06,0c-.34,0-.46-.18-.46-.49a2.25,2.25,0,0,1-.85-1.72c-.47-2.42-.24-2.7,2.24-2.7h14.17a1.92,1.92,0,0,1,2,.93c.83,1.32,2.48,1.21,3.89,1.24,8,.11,16,.47,24-.42l1.59-1.41c.12-.25.25-.48.57-.48a.83.83,0,0,1,.52-.86c1.08-4.29.1-5.81-4.49-5.89-10.37-.17-20.75-.07-31.12-.14-2,0-4,.24-5.77-1.11v0a.81.81,0,0,1-.9-.5v0l-.47-.46h0c-3-2.68-1.61-5.63-.54-8.56.71-.69.95-1.78,1.9-2.28v0l.47-.46h0c.18-.38.43-.62.88-.49-.05-.35.17-.43.46-.44a.73.73,0,0,1,.9-.45h0c2.37-1.64,5.18-1.93,7.89-2.11a339.92,339.92,0,0,1,44.91,0c1.34.09,2.87,0,3.91,1.25l0-.05c.8-.1,1,.7,1.59,1a2.67,2.67,0,0,0,1.6-.16,2.67,2.67,0,0,1-1.6.16l.49,1.32a1.22,1.22,0,0,1,0,1.38c-.26,1-1,.9-1.79.9l-14.13,0c-.69,0-1.44.26-1.75-.85-.23-.82-1.24-.79-1.94-.82a172.78,172.78,0,0,0-22.41.17,10.4,10.4,0,0,0-5.37,2l-.52.38-.42.92c-.29.74-.32,1.6-1,2.19V268Z" transform="translate(-15.43 -205.54)"/><path class="cls-4" d="M476,258.52c.8-.1,1,.7,1.59,1l.48,1.32a1.74,1.74,0,0,0,0,1.38c-.26,1-1,.9-1.79.9l-14.13,0c-.69,0-1.44.26-1.75-.85-.23-.82-1.24-.79-1.94-.82a172.78,172.78,0,0,0-22.41.17,10.4,10.4,0,0,0-5.37,2,2.09,2.09,0,0,0-.22-.2c1.33-2.08,3.54-2.32,5.65-2.6,6.47-.89,13-.4,19.48-.39,2,0,4.23-.13,5.73,1.82.4.52,1.12.29,1.71.3,4.11,0,8.22,0,12.34,0,.62,0,1.46.3,1.8-.48a2.29,2.29,0,0,0-.27-2.34C476.61,259.38,476.33,259,476,258.52Z" transform="translate(-15.43 -205.54)"/><path class="cls-4" d="M468.59,286c-6.48,2.28-13.23,2.24-19.95,2.26-11.15.05-22.3.41-33.44-.35-1.33-.09-2.65-.37-4-.56-.26-.48-1.21-.4-1-1.25,4.78,1.75,9.79,1.66,14.77,1.69,8.08,0,16.18.24,24.25-.06,6.53-.24,13.16-.06,19.48-2.25,0,.06.1.13.16.19A.91.91,0,0,1,468.59,286Z" transform="translate(-15.43 -205.54)"/><path class="cls-4" d="M430.25,269.7a18.72,18.72,0,0,0,5.33.59c9.5,0,19,0,28.5,0,2.75,0,5.55,0,8,1.57l-.2.24c-1.49-.15-2.81-1-4.36-1-7.17-.1-14.35-.29-21.52-.39-4.27-.06-8.54,0-12.81,0-1.13,0-2.26,0-3.14-.86Z" transform="translate(-15.43 -205.54)"/><path class="cls-4" d="M473.44,273.31c1.56,3,.27,5.66-.92,8.34l-.2-.16c.68-2.63,1.35-5.25.9-8Z" transform="translate(-15.43 -205.54)"/><path class="cls-4" d="M429.76,265c-.29.74-.32,1.6-1,2.19l-.07-.06c0-.87,0-1.74.84-2.3Z" transform="translate(-15.43 -205.54)"/><path class="cls-4" d="M472.09,271.91a2.42,2.42,0,0,1,1.35,1.4l-.22.18-1.33-1.34Z" transform="translate(-15.43 -205.54)"/><path class="cls-5" d="M478.09,262.22a1.74,1.74,0,0,1,0-1.38A1.2,1.2,0,0,1,478.09,262.22Z" transform="translate(-15.43 -205.54)"/><path class="cls-4" d="M470.2,284.75l-.76.61a2.85,2.85,0,0,0-.23-.26l.85-.52Z" transform="translate(-15.43 -205.54)"/><path class="cls-4" d="M428.79,267.18V268l-.08.06c-.4-.32-.4-.64,0-.95Z" transform="translate(-15.43 -205.54)"/><path class="cls-4" d="M430.18,264.07l-.42.92-.2-.17c.17-.28.33-.57.5-.86Z" transform="translate(-15.43 -205.54)"/><path class="cls-4" d="M428.79,268l.48.87-.15.14-.41-.95Z" transform="translate(-15.43 -205.54)"/><path class="cls-4" d="M471.74,283.09l-.63.76-.17-.15c.17-.28.35-.56.52-.85A1.61,1.61,0,0,0,471.74,283.09Z" transform="translate(-15.43 -205.54)"/><path class="cls-4" d="M472.52,281.65l-.48.88-.18-.16c.16-.29.31-.59.46-.88Z" transform="translate(-15.43 -205.54)"/><path class="cls-4" d="M472,282.53l-.3.56a1.61,1.61,0,0,1-.28-.24l.4-.48Z" transform="translate(-15.43 -205.54)"/><path class="cls-4" d="M430.7,263.69l-.52.38-.12-.11.42-.48Z" transform="translate(-15.43 -205.54)"/><path class="cls-4" d="M471.11,283.85l-.43.47-.17-.16c.15-.15.29-.31.43-.46Z" transform="translate(-15.43 -205.54)"/><path class="cls-4" d="M470.68,284.32l-.48.43-.14-.16.45-.43Z" transform="translate(-15.43 -205.54)"/><path class="cls-4" d="M469.44,285.36l-.56.32c-.06-.06-.11-.13-.16-.19l.49-.39A2.85,2.85,0,0,1,469.44,285.36Z" transform="translate(-15.43 -205.54)"/><path class="cls-4" d="M429.7,269.34l.55.36-.19.19-.49-.41Z" transform="translate(-15.43 -205.54)"/><path class="cls-4" d="M429.27,268.88c.15.15.29.3.43.46l-.13.14-.45-.46Z" transform="translate(-15.43 -205.54)"/><path class="cls-6" d="M429.12,269l.45.46.49.41c.88.9,2,.86,3.14.86,4.27,0,8.54,0,12.81,0,7.17.1,14.35.29,21.52.39,1.55,0,2.87.84,4.36,1l1.33,1.34c.45,2.75-.22,5.37-.9,8-.15.29-.3.59-.46.88l-.4.48c-.17.29-.35.57-.52.85s-.28.31-.43.46l-.45.43-.85.51-.49.39c-6.32,2.19-13,2-19.48,2.25-8.07.3-16.17.1-24.25.06-5,0-10,.06-14.77-1.69l.06,0-.46-.49h0a3.14,3.14,0,0,0,0-1.11c-1-2.27.1-2.64,2.14-2.58,4.18.11,8.37,0,12.56,0,.73,0,1.55-.21,2.14.41,1.6,1.7,3.76,1.75,5.81,1.79,5.46.1,10.93.18,16.38,0,2.15-.08,4.5.22,6.45-1.21l1.59-1.41a.62.62,0,0,0,.63-.49l-.06,0c.51-.1.57-.45.53-.88l0,0c1.81-2.06,1.31-4.88-1.1-5.82a12.62,12.62,0,0,0-4.36-.9c-12-.22-23.95.51-35.91-.43v0c-.13-.48-.49-.54-.9-.5v0l-.47-.46h0a11,11,0,0,1-.8-6c.35-1.8,1.85-3,2.16-4.81v0l.47-.46h0a.75.75,0,0,0,.88-.49h0l.46-.45h0c.4,0,.75,0,.9-.46h0a68.8,68.8,0,0,1,17.87-2.11c12.95-.07,25.95-.89,38.84,1.21l0-.05c.29.43.57.86.88,1.27a2.29,2.29,0,0,1,.27,2.34c-.34.78-1.18.48-1.8.48-4.12,0-8.23,0-12.34,0-.59,0-1.31.22-1.71-.3-1.5-1.95-3.74-1.82-5.73-1.82-6.5,0-13-.5-19.48.39-2.11.28-4.32.52-5.65,2.6l-.42.47c-.17.29-.33.58-.5.86-.85.56-.85,1.43-.84,2.3-.41.31-.41.63,0,.95C428.85,268.38,429,268.7,429.12,269Z" transform="translate(-15.43 -205.54)"/><path class="cls-4" d="M455.28,282.91c-1.95,1.43-4.3,1.13-6.45,1.21-5.45.21-10.92.13-16.38,0-2.05,0-4.21-.09-5.81-1.79-.59-.62-1.41-.41-2.14-.41-4.19,0-8.38.07-12.56,0-2-.06-3.1.31-2.14,2.58a3.14,3.14,0,0,1,0,1.11,2.23,2.23,0,0,1-.87-1.73c-.47-2.42-.24-2.7,2.24-2.7h14.17a1.92,1.92,0,0,1,2,.93c.83,1.32,2.48,1.21,3.89,1.24C439.28,283.44,447.29,283.8,455.28,282.91Z" transform="translate(-15.43 -205.54)"/><path class="cls-4" d="M416.58,273c12,.94,23.94.21,35.91.43a12.62,12.62,0,0,1,4.36.9c2.41.94,2.91,3.76,1.1,5.82,1.09-4.3.12-5.82-4.48-5.9-10.37-.17-20.75-.07-31.12-.14C420.38,274.11,418.31,274.37,416.58,273Z" transform="translate(-15.43 -205.54)"/><path class="cls-4" d="M416.6,261.28c-.31,1.79-1.81,3-2.16,4.81a11,11,0,0,0,.8,6c-3-2.68-1.6-5.63-.54-8.56C415.41,262.87,415.65,261.78,416.6,261.28Z" transform="translate(-15.43 -205.54)"/><path class="cls-4" d="M415.69,272.55c.41,0,.77,0,.9.5A.81.81,0,0,1,415.69,272.55Z" transform="translate(-15.43 -205.54)"/><path class="cls-4" d="M458,280.15c0,.43,0,.78-.53.88A.84.84,0,0,1,458,280.15Z" transform="translate(-15.43 -205.54)"/><path class="cls-4" d="M457.5,281a.62.62,0,0,1-.63.49C457,281.23,457.13,281,457.5,281Z" transform="translate(-15.43 -205.54)"/><path class="cls-4" d="M415.23,272.11l.47.46Z" transform="translate(-15.43 -205.54)"/><path class="cls-4" d="M409.82,285.59l.46.49C409.94,286.09,409.82,285.9,409.82,285.59Z" transform="translate(-15.43 -205.54)"/><path class="cls-7" d="M476,258.57c-12.89-2.1-25.89-1.28-38.84-1.21a68.8,68.8,0,0,0-17.87,2.11c2.37-1.64,5.18-1.93,7.89-2.11a339.92,339.92,0,0,1,44.91,0C473.43,257.41,475,257.34,476,258.57Z" transform="translate(-15.43 -205.54)"/><path class="cls-4" d="M419.29,259.47c-.15.44-.5.5-.9.46A.72.72,0,0,1,419.29,259.47Z" transform="translate(-15.43 -205.54)"/><path class="cls-4" d="M417.93,260.36a.75.75,0,0,1-.88.49C417.23,260.47,417.48,260.23,417.93,260.36Z" transform="translate(-15.43 -205.54)"/><path class="cls-4" d="M418.39,259.92l-.46.45C417.87,260,418.1,259.93,418.39,259.92Z" transform="translate(-15.43 -205.54)"/><path class="cls-4" d="M417.06,260.84l-.47.46Z" transform="translate(-15.43 -205.54)"/><path class="cls-4" d="M342.45,286.45c-.39.59-1,.59-1.59.6-4.19.06-8.37.13-12.56.18a2.22,2.22,0,0,1-.79-.33c1.59-4.92,3.2-9.85,4.77-14.78,1.26-4,2.47-8,3.7-11.93.44-2,1.73-2.43,3.72-2.42,16.74.09,33.49,0,50.23.08,2.34,0,4.75,0,6.92,1.17l-.1.12a37.89,37.89,0,0,0-7.14-.59c-6.22.06-12.44,0-18.66,0h-31.7c-1,0-1.91-.25-2.38,1.28-2.57,8.35-5.28,16.67-8,25-.42,1.3-.18,1.73,1.22,1.68,2.69-.08,5.39,0,8.09,0,4.27-.08,3.11.76,4.69-3.43,1-2.63,1.37-5.51,3-7.89l.17.15Q344.26,280.88,342.45,286.45Z" transform="translate(-15.43 -205.54)"/><path class="cls-4" d="M399.08,262.67a10.34,10.34,0,0,1-1.72,5l-.18-.16c.66-2.48,1.72-4.93.49-7.53l.26-.26.87,1.13c.09.29.17.59.25.88Z" transform="translate(-15.43 -205.54)"/><path class="cls-8" d="M399.05,261.74c-.08-.29-.16-.59-.25-.88C399.32,261,399.77,261.22,399.05,261.74Z" transform="translate(-15.43 -205.54)"/><path class="cls-4" d="M397.45,259.31l.48.42-.26.26-.44-.45Z" transform="translate(-15.43 -205.54)"/><path class="cls-4" d="M396.85,259l.6.29-.22.23-.48-.4Z" transform="translate(-15.43 -205.54)"/><path class="cls-4" d="M393.34,286.71c-.25.15-.5.43-.76.44-5.3,0-10.61.41-15.9-.19.54-2.07,1.1-4.14,1.62-6.22a4.31,4.31,0,0,0-.45-3.63L378,277c1.56.79,1.36,2.15,1.07,3.49-.34,1.59-.75,3.18-1.17,4.76-.24.91-.1,1.35,1,1.33,4.18,0,8.36,0,12.54,0a1.3,1.3,0,0,0,1.31-.61c1.41-2.24,1.16-7.81-.49-9.69l.18-.2a3.19,3.19,0,0,1,2,3.75C394.16,282.08,393.72,284.39,393.34,286.71Z" transform="translate(-15.43 -205.54)"/><path class="cls-4" d="M377.38,276.69a14,14,0,0,0-6.69-1.52c-8.21,0-16.42-.22-24.62.14l-.17-.15c.38-1.11,1.33-.78,2.09-.78,7.72,0,15.43-.06,23.15,0,2.28,0,4.65.25,6.4,2.1Z" transform="translate(-15.43 -205.54)"/><path class="cls-4" d="M377.85,277.11l-.47-.42.16-.17.46.43Z" transform="translate(-15.43 -205.54)"/><path class="cls-4" d="M394.69,270.41c-2.18,1.85-4.9,1.88-7.51,2.25-1.1.16-2.2.28-3.3.41l-.16-.13c.44-.77,1.16-.82,1.94-.84a22.89,22.89,0,0,0,8.85-1.88Z" transform="translate(-15.43 -205.54)"/><path class="cls-4" d="M383.88,273.07c.26,1,1.15.74,1.83.86,2.33.43,4.7.72,6.74,2.07l-.18.2c-2.42-.57-4.86-1.1-7.26-1.74-.67-.18-2.1,0-1.29-1.52Z" transform="translate(-15.43 -205.54)"/><path class="cls-4" d="M396.89,268.11a3.24,3.24,0,0,1-1.68,1.93l-.23-.24,1.81-1.79Z" transform="translate(-15.43 -205.54)"/><path class="cls-4" d="M395.21,270l-.52.37-.18-.19.47-.42Z" transform="translate(-15.43 -205.54)"/><path class="cls-4" d="M397.36,267.68c-.16.14-.32.28-.47.43l-.1-.1.39-.49Z" transform="translate(-15.43 -205.54)"/><path class="cls-6" d="M397.18,267.52l-.39.49L395,269.8l-.47.42a22.89,22.89,0,0,1-8.85,1.88c-.78,0-1.5.07-1.94.84-.81,1.54.62,1.34,1.29,1.52,2.4.64,4.84,1.17,7.26,1.74,1.65,1.88,1.9,7.45.49,9.69a1.3,1.3,0,0,1-1.31.61c-4.18,0-8.36,0-12.54,0-1.11,0-1.25-.42-1-1.33.42-1.58.83-3.17,1.17-4.76.29-1.34.49-2.7-1.07-3.49l-.46-.43c-1.75-1.85-4.12-2.07-6.4-2.1-7.72-.1-15.43-.05-23.15,0-.76,0-1.71-.33-2.09.78-1.65,2.38-2,5.26-3,7.89-1.58,4.19-.42,3.35-4.69,3.43-2.7.06-5.4,0-8.09,0-1.4.05-1.64-.38-1.22-1.68,2.71-8.31,5.42-16.63,8-25,.47-1.53,1.39-1.28,2.38-1.28H371c6.22,0,12.44,0,18.66,0a37.89,37.89,0,0,1,7.14.59l.48.4.44.45C398.9,262.59,397.84,265,397.18,267.52Zm-14.67,1.05c1.93-2.68,1.76-5-.46-6.46a2.1,2.1,0,0,0-1.76-.8c-3.05-.13-6.1-.4-9.16-.39-6.27,0-12.54-.16-18.82.27-2,.14-3.05.64-3.31,2.6-.09.66-.24,1.31-.36,2-1,1.18-1.07,2.76-1.68,4.11s-.31,1.82,1.27,1.81c9.59-.06,19.18,0,28.77-.05a4.66,4.66,0,0,0,3.7-1.26A2.31,2.31,0,0,0,382.51,268.57Z" transform="translate(-15.43 -205.54)"/><path class="cls-4" d="M348.64,265.76c.12-.66.27-1.31.36-2,.26-2,1.31-2.46,3.31-2.6,6.28-.43,12.55-.27,18.82-.27,3.06,0,6.11.26,9.16.39a2.1,2.1,0,0,1,1.76.8l-.2.24a25.48,25.48,0,0,0-5.78-.57c-7.08,0-14.18.16-21.25-.07-3.11-.11-5.38.22-5.78,3.82,0,.11-.2.2-.3.3Z" transform="translate(-15.43 -205.54)"/><path class="cls-4" d="M380.7,270.37a4.66,4.66,0,0,1-3.7,1.26c-9.59,0-19.18,0-28.77.05-1.58,0-1.85-.51-1.27-1.81s.66-2.93,1.68-4.11l.1.07c0,1.83-1.14,3.37-1.32,5.33h2.27c8.15,0,16.3,0,24.45,0a17.62,17.62,0,0,0,6.37-1Z" transform="translate(-15.43 -205.54)"/><path class="cls-4" d="M382.05,262.11c2.22,1.46,2.39,3.78.46,6.46l-.2-.18c.64-2.07,1.79-4.19-.46-6Z" transform="translate(-15.43 -205.54)"/><path class="cls-4" d="M382.51,268.57a2.31,2.31,0,0,1-1.81,1.8l-.19-.21,1.8-1.77Z" transform="translate(-15.43 -205.54)"/><path class="cls-8" d="M401.82,263.07c.19-3.52-1.34-5.8-4.44-6.73a22.41,22.41,0,0,0-6.57-.84q-26.31,0-52.6,0c-3.86,0-3.86,0-4.9,3.9-.36,1.11-.73,2.21-1.08,3.31q-3.89,12.3-7.76,24.59c-1.19,1.85-.53,2.3,1.47,2.25,5.35-.11,10.71-.16,16.07,0,2,.05,3.11-.48,3.17-2.57.29-.76.58-1.52.86-2.29.85-2.31,1.06-5.36,2.69-6.74s4.88-.41,7.4-.44c5-.07,10.05,0,15.07,0,3.58,0,4.62,1.55,3.72,5.06-.37,1.42-.62,2.88-.93,4.32.26.89-2.12,2.62.63,2.68,6.51.12,13,0,19.54,0,1.47,0,1.56-.72,1.41-1.8,1.2-2.21,1.27-4.71,1.75-7.09a6.86,6.86,0,0,0-.2-4.2c-.64-1.44-2-2-3.57-2.42C400.65,269.75,401.46,267.29,401.82,263.07Zm-66.62-2.66a1.9,1.9,0,0,1-1-.24A1.9,1.9,0,0,0,335.2,260.41Zm61.69,7.7a3.24,3.24,0,0,1-1.68,1.93l-.52.37c-2.18,1.85-4.9,1.88-7.51,2.25-1.1.16-2.2.28-3.3.41.26,1,1.15.74,1.83.86,2.33.43,4.7.72,6.74,2.07a3.19,3.19,0,0,1,2,3.75c-.31,2.33-.75,4.64-1.13,7-.25.15-.5.43-.76.43-5.3.05-10.61.42-15.9-.18a1.73,1.73,0,0,0-.33-.17,2.11,2.11,0,0,0-1-.16,5.2,5.2,0,0,0-.67.11,5.2,5.2,0,0,1,.67-.11,2.11,2.11,0,0,1,1,.16,1.73,1.73,0,0,1,.33.17c.54-2.07,1.1-4.14,1.62-6.22a4.31,4.31,0,0,0-.45-3.63l-.47-.42a14,14,0,0,0-6.69-1.52c-8.21,0-16.42-.22-24.62.14q-1.81,5.56-3.62,11.14c-.39.59-1,.59-1.59.6-4.19.06-8.37.13-12.56.18a2.22,2.22,0,0,1-.79-.33l-.41-.11.41.11c1.59-4.92,3.2-9.85,4.77-14.78,1.26-4,2.47-8,3.7-11.93h0c.44-2,1.73-2.43,3.72-2.42,16.74.09,33.49,0,50.23.08,2.34,0,4.75,0,6.92,1.17l.6.29.48.42.87,1.13c.52.17,1,.36.25.88l0,.93a10.34,10.34,0,0,1-1.72,5C397.2,267.82,397,268,396.89,268.11Z" transform="translate(-15.43 -205.54)"/><path class="cls-8" d="M381.85,262.35a25.48,25.48,0,0,0-5.78-.57c-7.08,0-14.18.16-21.25-.07-3.11-.11-5.38.22-5.78,3.82,0,.11-.2.2-.3.3,0,1.83-1.14,3.37-1.32,5.33h2.27c8.15,0,16.3,0,24.45,0a17.62,17.62,0,0,0,6.37-1l1.8-1.77C383,266.32,384.1,264.2,381.85,262.35Zm-4.87,6.3c-3.8.16-7.62.13-11.43.18h-1.34c-3.82,0-7.63-.05-11.45,0-1.41,0-1.5-.35-1.22-1.66.52-2.38,1.49-3.35,4.18-3.26,7,.24,14.06,0,21.08.06,1.28,0,3.09-.39,3.25,1.47A2.9,2.9,0,0,1,377,268.65Z" transform="translate(-15.43 -205.54)"/></svg>