<svg id="Layer_1" data-name="Layer 1" xmlns="http://www.w3.org/2000/svg" viewBox="0 0 447.25 72.34"><defs><style>.cls-1{fill:#ededed;}</style></defs><path class="cls-1" d="M215.29,191.52c11.9,0,23.8-.07,35.7,0,5.06.05,10.13.43,15.18.79a19,19,0,0,1,4.56,1c7.16,2.29,11.08,7.33,11.65,14.71a45,45,0,0,1-.46,10.88c-1.19,7.17-6.09,11.6-13.3,12.63-1.64.24-3.3.33-4.94.59a10.34,10.34,0,0,0-2,.75,8.27,8.27,0,0,0,1,1.78q8.74,9.34,17.53,18.64,3.31,3.53,6.6,7.07a6,6,0,0,1,.93,1.25,1.25,1.25,0,0,1-.92,2,6.3,6.3,0,0,1-1.56.15c-6.87-.08-13.74-.23-20.61-.23a6.47,6.47,0,0,1-5-2.49c-7.41-8.13-14.87-16.21-22.26-24.35a10,10,0,0,0-8-3.65c-11.62.12-23.23.06-34.85.15-3.77,0-5,1.46-5,5.3,0,7.44,0,14.88,0,22.33,0,2.29-.4,2.78-2.71,2.79q-9.47.06-18.92,0c-1.73,0-2.3-.61-2.31-2.18q-.13-28.86-.27-57.74c0-2.84,0-5.69,0-8.53,0-2.58.7-3.3,3.3-3.35,4-.08,8-.14,12.08-.14,11.52,0,23-.23,34.56-.23Zm7.25,9v0H202.21c-2.75,0-5.5,0-8.25.1-3.59.2-4.77,1.53-4.78,5.12q0,4.69,0,9.39c0,1.66,0,3.32.1,5,.19,2.35,1.19,3.39,3.49,3.81a12.46,12.46,0,0,0,2.11.2c16.68-.06,33.37-.11,50.05-.24a53,53,0,0,0,8.91-.63c4.54-.81,7.34-3.7,8.34-8.25,1.34-6.09-1.38-11.74-6.77-13.54a20.49,20.49,0,0,0-6.14-.93C240.36,200.5,231.45,200.56,222.54,200.56Z" transform="translate(-26.37 -191.5)"/><path class="cls-1" d="M101.41,263.41c-13.31-.34-26.63-.31-39.94-.8a62.39,62.39,0,0,1-11.95-1.56A27,27,0,0,1,30,244.47c-5-11.87-4.94-23.87.51-35.59,4.52-9.71,12.63-14.88,23-16.16a170.16,170.16,0,0,1,19.43-1c21-.12,42,0,63,0h2.83c1.33,0,1.9.71,1.92,1.94,0,1.52.06,3,0,4.55s-.54,2.09-2.19,2.13c-3.6.1-7.21.19-10.81.19-15.65,0-31.29-.05-46.94,0a132,132,0,0,0-13.18.87c-7.32.79-12,5.11-14.49,11.8a38.25,38.25,0,0,0,.08,27.27C56.1,248.21,62,251.86,70,252.34c3.88.23,7.76.54,11.64.56,15.51.06,31,0,46.52,0q7.6,0,15.22,0c2.31,0,2.75.42,2.81,2.72,0,1.8,0,3.61,0,5.41a1.87,1.87,0,0,1-2.1,2.1c-2.47.05-4.93.2-7.39.2q-17.64,0-35.28,0Z" transform="translate(-26.37 -191.5)"/><path class="cls-1" d="M404.67,263.54c-3.65,0-7.3,0-10.95,0a8.41,8.41,0,0,1-7.12-3.47c-3.3-4.28-6.61-8.55-9.81-12.9Q358,221.62,339.33,196a7.18,7.18,0,0,1-.75-1.21c-.67-1.42-.24-2.41,1.28-2.79a8.8,8.8,0,0,1,2.11-.22c6,0,11.95.07,17.92,0a6.34,6.34,0,0,1,5.81,3c12.59,17.51,25.33,34.91,37.88,52.46,2.29,3.2,4.83,4.64,8.81,4.29a7.25,7.25,0,0,0,5.76-3c6.94-9.31,14-18.56,20.9-27.87q8.11-10.87,16.16-21.82c1.19-1.6,2.27-3.27,3.41-4.9a4.62,4.62,0,0,1,3.89-2.26c3.22,0,6.44,0,9.66.08,1.35,0,1.79,1,1.2,2.18a8.4,8.4,0,0,1-.78,1.19q-18.13,24.25-36.27,48.52c-3.55,4.74-7.34,9.32-10.67,14.21-3,4.42-7.07,6-12.16,5.81-2.94-.1-5.88,0-8.82,0Z" transform="translate(-26.37 -191.5)"/><path class="cls-1" d="M316.62,236.22H302.54c-2.51,0-2.9-.37-3-2.87s0-5.21,0-7.81c.05-1.75.53-2.22,2.25-2.22q14.79,0,29.57,0c1.65,0,2.15.45,2.21,2.12q.14,4.34,0,8.67c0,1.65-.59,2.08-2.39,2.09-4.88,0-9.76,0-14.64,0Z" transform="translate(-26.37 -191.5)"/></svg>