<svg width="24" height="22" viewBox="0 0 24 22" fill="none" xmlns="http://www.w3.org/2000/svg">
<path d="M12 0.0869141C12 0.0869141 4.5768 6.58778 0.4284 10.1085C0.296396 10.2252 0.190044 10.3687 0.116242 10.5298C0.0424399 10.6908 0.00283634 10.8658 0 11.0434C0 11.3663 0.126428 11.676 0.351472 11.9043C0.576515 12.1326 0.88174 12.2608 1.2 12.2608H3.6V20.7826C3.6 21.1054 3.72643 21.4151 3.95147 21.6434C4.17652 21.8717 4.48174 22 4.8 22H8.4C8.71826 22 9.02349 21.8717 9.24853 21.6434C9.47357 21.4151 9.6 21.1054 9.6 20.7826V15.913H14.4V20.7826C14.4 21.1054 14.5264 21.4151 14.7515 21.6434C14.9765 21.8717 15.2817 22 15.6 22H19.2C19.5183 22 19.8235 21.8717 20.0485 21.6434C20.2736 21.4151 20.4 21.1054 20.4 20.7826V12.2608H22.8C23.1183 12.2608 23.4235 12.1326 23.6485 11.9043C23.8736 11.676 24 11.3663 24 11.0434C23.9983 10.8624 23.9561 10.6842 23.8764 10.5222C23.7968 10.3602 23.6819 10.2187 23.5404 10.1085C19.4208 6.58778 12 0.0869141 12 0.0869141Z" fill="white"/>
</svg>
