<svg id="Layer_1" data-name="Layer 1" xmlns="http://www.w3.org/2000/svg" viewBox="0 0 415.79 112.34"><defs><style>.cls-1{fill:#ededed;}</style></defs><path class="cls-1" d="M269.43,289.67c-2.6-2.74-5.27-5.42-7.78-8.24-2.18-2.45-1.76-3.7,1.36-4.6.82-.24,1.67-.41,2.5-.62,8.57-2.19,13.19-7.65,13.92-16.44s-4-15.95-12.34-18.28a34,34,0,0,0-8.62-1.24c-13.59-.12-27.18-.05-40.78-.05H176.52c-.73,0-1.46,0-2.19,0-2.48.22-3.28,1.07-3.3,3.53-.06,4.64-.12,9.28-.12,13.92q0,21.87,0,43.75c0,.73,0,1.46.09,2.18a2.38,2.38,0,0,0,2.57,2.45c4.91,0,9.82,0,14.72,0a2.25,2.25,0,0,0,2.38-2.2,22,22,0,0,0,.13-2.57c0-6.1,0-12.2,0-18.3,0-3.4,1.49-5.16,4.81-5.76a16,16,0,0,1,2.77-.21c10.54,0,21.08.06,31.63,0a12.93,12.93,0,0,1,10.14,4.49c7,7.5,14.2,14.85,21.27,22.29a7.18,7.18,0,0,0,5.64,2.4c4.78-.06,9.55,0,14.33,0a6.52,6.52,0,0,0,1.9-.66,6.08,6.08,0,0,0-.79-1.89C278.18,298.9,273.8,294.29,269.43,289.67ZM252,269.93a33,33,0,0,1-5.34.44q-24.36.06-48.73,0c-5.29,0-7.08-1.77-7.08-7,0-3.25,0-6.5,0-9.74,0-4.64,1.49-6.09,6.08-6.09q13,0,26.06,0v.1c8.88,0,17.77-.09,26.65,0,4.06.06,7.89,1.22,9.81,5.23a13.17,13.17,0,0,1-.68,12.94C257.25,268.36,254.72,269.47,252,269.93Z" transform="translate(-42.56 -193.85)"/><path class="cls-1" d="M144.08,240.32q-6.47-.21-12.93-.06c-3.1.07-3.78.89-3.79,4.05,0,6.69,0,13.39,0,20.09,0,3.24-.85,4.23-4,4.23q-28.15.06-56.3,0c-3.31,0-4.15-1-4.16-4.36,0-6.83,0-13.66,0-20.49,0-2.6-.63-3.38-3.25-3.45q-6.66-.2-13.32,0c-3,.07-3.7,1-3.7,3.89v58.07c0,2.84.9,3.79,3.77,3.82,4.24,0,8.48,0,12.73,0,3,0,3.78-.81,3.78-3.77q0-10.05,0-20.09c0-4,1-5,5-5H93.15q14.82,0,29.64,0c3.39,0,4.56,1.2,4.56,4.5,0,7,0,13.93,0,20.89,0,2.64.83,3.48,3.45,3.51q6.47.07,12.94,0c2.65,0,3.41-.84,3.41-3.5q0-29.43,0-58.87C147.17,241.15,146.61,240.4,144.08,240.32Z" transform="translate(-42.56 -193.85)"/><path class="cls-1" d="M456.45,239.72c-3-.05-6-.1-8.95,0a3.85,3.85,0,0,0-2.15,1.21,22.17,22.17,0,0,0-1.91,2.54c-12.26,16.32-24.58,32.61-36.76,49-3.31,4.46-9.54,5.42-13.29,0-1.7-2.46-3.55-4.8-5.31-7.21q-15.34-21.06-30.65-42.14a6.11,6.11,0,0,0-5.32-2.88c-5.23,0-10.47-.09-15.71,0-1.07,0-2.65.43-3,1.17s.26,2.24.88,3.11c5.84,8.13,11.76,16.2,17.68,24.28q11.64,15.88,23.31,31.75a12.91,12.91,0,0,0,11.25,5.6c5-.09,10.09-.18,15.12,0s8.59-1.89,11.59-5.92c11.68-15.69,23.55-31.24,35.34-46.84,3.19-4.22,6.37-8.45,9.83-13A3.67,3.67,0,0,0,456.45,239.72Z" transform="translate(-42.56 -193.85)"/><path class="cls-1" d="M319.93,217.54c.07,5.34,0,5.31,5.41,5.25a2.26,2.26,0,0,0,2.3-1.41c2.19-4.32,4.48-8.58,6.74-12.85.26-.48.57-.94.86-1.4a91.67,91.67,0,0,1,1.31,11.12c.31,4.53.29,4.43,4.72,4.56a2.82,2.82,0,0,0,3.07-2.07c3.61-8.32,7.32-16.61,11-24.91a18.81,18.81,0,0,0,.59-1.82c-2,0-3.61.07-5.26,0a2,2,0,0,0-2.24,1.44c-1.24,3-2.58,6-3.89,8.93-.91,2.08-1.85,4.15-2.78,6.23-.7-4.24-1-8.38-1.37-12.53-.36-4.35-.36-4.39-4.88-4a2.32,2.32,0,0,0-1.52,1.3c-.55,1.26-.68,2.7-1.27,3.93-1.62,3.41-3.39,6.75-5.11,10.11a6.09,6.09,0,0,1-.72,1l-.48-.11V194.11h-6.89c0,.67,0,1.13,0,1.58C319.65,203,319.84,210.26,319.93,217.54Z" transform="translate(-42.56 -193.85)"/><path class="cls-1" d="M254,222.76c4.22-.1,3.32.71,4.27-3.61s1.83-8.5,2.83-13.17c.5.82.79,1.24,1,1.69,1.9,3.72,4.05,7.34,5.6,11.2,1.3,3.22,3.17,4.48,6.57,3.95,1.24-.19,1.84-.42,2.11-1.74,1.11-5.66,2.37-11.29,3.55-16.93.69-3.28,1.35-6.57,2.09-10.13a35.41,35.41,0,0,1-4.65,0c-2.17-.32-2.81.69-3.16,2.63-.84,4.62-1.88,9.2-2.84,13.8l-.49.09c-.31-.56-.64-1.1-.92-1.67-1.85-3.67-3.92-7.25-5.44-11.05-1.23-3.06-3-4.31-6.25-3.83-1.29.19-2,.34-2.25,1.79-1.16,5.92-2.47,11.81-3.72,17.71-.64,3-1.27,6-2,9.31C251.81,222.76,252.92,222.78,254,222.76Z" transform="translate(-42.56 -193.85)"/><path class="cls-1" d="M306.46,221.87c.41-1.42.65-2.88,1-4.7h-14a31.07,31.07,0,0,0,.83-4c.12-1.7,1-2.05,2.5-2,1.79.1,3.58,0,5.37,0,5.08,0,5.08,0,5.94-5a2.75,2.75,0,0,0-.19-.62h-12c.36-1.71.72-3.1.94-4.52.19-1.21.76-1.62,2-1.59,3.58.07,7.16.07,10.74,0a2.32,2.32,0,0,0,1.81-1,28.5,28.5,0,0,0,.89-4.4c-.78,0-1.36-.11-1.94-.11-5.76,0-11.53.06-17.3-.05-1.56,0-2,.57-2.31,2-1.15,5.71-2.43,11.4-3.63,17.1-.66,3.14-1.27,6.29-2,9.71,7,0,13.58,0,20.19,0A1.46,1.46,0,0,0,306.46,221.87Z" transform="translate(-42.56 -193.85)"/><path class="cls-1" d="M168,199.81c-.33-1.88-.21-4.43-1.36-5.38s-3.65-.27-5.54-.44a2.66,2.66,0,0,0-2.81,1.62c-4.93,8.4-9.93,16.75-14.9,25.12-.32.54-.58,1.13-1,2a30.78,30.78,0,0,1,4.23,0c2.51.37,4.23-.44,5.09-2.86,1.17-3.3,3.56-4.18,6.83-3.69,1.67.25,3.85-.4,5,.45s.86,3,1.22,4.61c0,.2,0,.45.12.58.29.31.63.79,1,.8,2,.08,3.93,0,6.17,0C170.57,214.8,169.3,207.3,168,199.81Zm-11.94,11.06,5.48-9.28.45.08c.5,3,1,6,1.54,9.2Z" transform="translate(-42.56 -193.85)"/><path class="cls-1" d="M224.16,222.76c5,0,5,0,5.81-4.88,0-.11-.08-.24-.22-.66H216.58c1.64-7.84,3.2-15.32,4.85-23.2a42.33,42.33,0,0,1-4.7,0c-1.87-.21-2.66.42-3,2.33-1.17,6.18-2.55,12.32-3.84,18.48-.54,2.56-1.07,5.13-1.66,8h15.95Z" transform="translate(-42.56 -193.85)"/><path class="cls-1" d="M200.05,222.71a1.31,1.31,0,0,0,1-.77c.38-1.44.62-2.92,1-4.72H188.49c1.65-7.87,3.24-15.41,4.88-23.21-2,0-3.73.07-5.44,0-1.29-.07-1.86.34-2.12,1.69-.92,4.74-2,9.46-3,14.19-.88,4.19-1.73,8.39-2.65,12.87C187,222.74,193.51,222.75,200.05,222.71Z" transform="translate(-42.56 -193.85)"/><path class="cls-1" d="M327.5,268.78c-4.3.06-8.6,0-12.91,0-3.5,0-7,0-10.52,0-4.9.05-5.14-.93-5.05,5.26,0,2.72.4,3.09,3.11,3.09q11.22,0,22.43,0c6,0,5.92,0,5.53-6C330,269.36,329.23,268.75,327.5,268.78Z" transform="translate(-42.56 -193.85)"/></svg>