<svg id="Layer_1" data-name="Layer 1" xmlns="http://www.w3.org/2000/svg" viewBox="0 0 415.79 119.09"><defs><style>.cls-1{fill:#ededed;}</style></defs><path class="cls-1" d="M115.8,309.13c-12,0-23.9.12-35.85,0-7.88-.11-15.47-1.69-22.35-5.78a29.85,29.85,0,0,1-14.69-21.15c-2-11.15-.37-21.52,7.28-30.31,6-6.95,14.14-10,23-11.17A101.74,101.74,0,0,1,85.7,240q31.85-.1,63.71,0c1.5,0,3.7-.54,4.09,1.35a20.44,20.44,0,0,1-.16,7c-.07.47-1.85,1-2.85,1-8.06.09-16.11.07-24.17.07-11.2,0-22.4-.09-33.6.06a56.7,56.7,0,0,0-11,1.24c-7.51,1.61-12.19,6.42-14.08,13.81a38.91,38.91,0,0,0-.22,18.27c1.93,8.65,7.87,14,16.91,15.16a82.39,82.39,0,0,0,10.41.73c19.26.07,38.52,0,57.77,0,.89,0,1.78,0,2.66.1a2.3,2.3,0,0,1,2.32,2.18,46.11,46.11,0,0,1,.18,5.51,2.72,2.72,0,0,1-2.79,2.72c-.75.06-1.5,0-2.25,0H115.8Z" transform="translate(-42.1 -190.46)"/><path class="cls-1" d="M389.93,296.06c0-2.52-.12-5.06,0-7.57a10,10,0,0,0-4.23-9c-7.75-6.15-15.39-12.43-23.08-18.66l-18.74-15.23a9.41,9.41,0,0,1-1.46-1.43,2.32,2.32,0,0,1,1.33-3.94,11.35,11.35,0,0,1,2.85-.28c4.16,0,8.33.16,12.49.1a12.68,12.68,0,0,1,8.42,3.12q14.74,11.88,29.57,23.65c2.23,1.78,4.67,3.53,7.6,2.83a16,16,0,0,0,6.29-3.09c9.85-8.11,19.56-16.37,29.28-24.64a9.31,9.31,0,0,1,6.84-2.63c2.52.15,5.05,0,7.58,0,1.3,0,3-.16,3.18,1.43a4.53,4.53,0,0,1-1.52,3.21c-3.24,3-6.64,5.88-10,8.79q-15.28,13.3-30.6,26.58a10.29,10.29,0,0,0-3.77,8.44c.09,5.8,0,11.61,0,17.41,0,3.27-1,4.32-4.29,4.35-4.57.05-9.15.06-13.72-.1-3.27-.1-4-1-4.06-4.32C389.92,302.07,389.93,299.07,389.93,296.06Z" transform="translate(-42.1 -190.46)"/><path class="cls-1" d="M274.94,240q25.41,0,50.81,0c1.5,0,3.7-.57,4.13,1.29a19.5,19.5,0,0,1,0,6.94c-.08.5-1.93,1.06-3,1.07-10.18.08-20.36,0-30.53.07a38.63,38.63,0,0,0-4.69.33,5.91,5.91,0,0,0-5.53,5.63,38.42,38.42,0,0,0-.24,4.29q0,22.53,0,45.06c0,3.94-.82,4.81-4.82,4.84-4.37,0-8.74,0-13.11-.11-3.31-.12-4.05-1-4.06-4.29q0-23,0-45.89c0-7.78-2.05-9.85-9.83-9.87-10.24,0-20.49,0-30.73-.09-1.4,0-3.08.24-3.57-1.62-.62-2.33-1-4.81.53-6.87.49-.65,2-.75,3-.76,5.73-.07,11.47,0,17.21,0Z" transform="translate(-42.1 -190.46)"/><path class="cls-1" d="M178.89,274.65q0-14.94,0-29.89c0-4.23.69-5,5-5s8.33-.06,12.49,0c3.59.05,4.49.92,4.5,4.54.06,15.28.05,30.57.07,45.85,0,5,0,10,0,14.94,0,3.33-1,4.37-4.22,4.42-4.36.05-8.73.07-13.1-.05-4.07-.11-4.74-.89-4.74-4.91q0-14.94,0-29.89Z" transform="translate(-42.1 -190.46)"/><path class="cls-1" d="M306.22,190.71h5.3v20.13l.43.11a10.32,10.32,0,0,0,.51-1.06c2-5.37,4-10.74,6-16.12,1.33-3.64,1.38-3.68,5.72-2.92.3,6.6.6,13.26.9,19.92l.31.11c.18-.56.36-1.13.55-1.69,1.8-5.3,3.73-10.56,5.35-15.9.65-2.13,1.58-3.12,3.81-2.72a12.84,12.84,0,0,0,1.89,0c-.56,1.73-1,3.27-1.55,4.79-2.71,7.94-5.51,15.85-8.1,23.83-.67,2.07-1.62,2.94-3.77,2.55a17,17,0,0,0-3,0c-.35-6.11-.68-11.93-1-17.76l-.29-.09L316.39,212c-.94,2.64-1.93,5.25-2.78,7.92-.44,1.39-1.15,2-2.66,1.82a29.2,29.2,0,0,0-3.65,0C306.94,211.24,306.58,201,306.22,190.71Z" transform="translate(-42.1 -190.46)"/><path class="cls-1" d="M270,208.14c1.07-6.2,2-11.77,3-17.44h4.46c-1.14,7.47-2.25,14.8-3.37,22.13-.35,2.3-.8,4.57-1.07,6.87-.19,1.58-.83,2.31-2.5,2.05a19.13,19.13,0,0,0-2.74,0c-1.48-6.21-2.91-12.23-4.35-18.25l-.24,0c-.8,4.86-1.61,9.72-2.38,14.59-.65,4.13-.63,4.13-5.16,3.35.47-3.06.93-6.13,1.41-9.2,1.06-6.66,2.18-13.32,3.17-20,.2-1.33.72-1.65,2-1.64,3.52,0,3.56-.06,4.39,3.31C267.7,198.43,268.76,203,270,208.14Z" transform="translate(-42.1 -190.46)"/><path class="cls-1" d="M180.3,221.38,186,206.13c1.72-4.59,3.51-9.16,5.13-13.79a2.21,2.21,0,0,1,2.65-1.78c1.21.11,2.43,0,4,0,.68,10.38,1.35,20.61,2,31h-5.41c-.2-1.76-.38-3.42-.58-5.22-2,0-3.87-.05-5.76,0-.4,0-.84.47-1.15.81a2.72,2.72,0,0,0-.37.94C185,222.22,185,222.22,180.3,221.38Zm12.95-21.11-.34-.08c-1.32,3.68-2.65,7.35-4,11.15h4.91C193.61,207.55,193.43,203.91,193.25,200.27Z" transform="translate(-42.1 -190.46)"/><path class="cls-1" d="M300.58,190.72a30.85,30.85,0,0,1-.63,4.47,2.19,2.19,0,0,1-1.71,1.13c-3.12.11-6.25.05-9.48.05-.38,2.33-.73,4.47-1.13,6.95h6.13c-.63,2-.69,4.17-1.72,4.82-1.21.77-3.28.18-5.16.18-.42,2.53-.81,4.85-1.28,7.65h11c-.21,1.72-.32,3.27-.63,4.77a1.65,1.65,0,0,1-1.2,1c-5,.07-9.94,0-15.2,0,1.67-10.53,3.3-20.73,4.94-31.05Z" transform="translate(-42.1 -190.46)"/><path class="cls-1" d="M229.6,190.7h5c-1.3,8.41-2.58,16.67-3.9,25.2h7.37c.2.35.32.46.31.56-.51,5.35-.51,5.35-5.84,5.34h-8Z" transform="translate(-42.1 -190.46)"/><path class="cls-1" d="M211.59,215.91h7.52a5.18,5.18,0,0,1,.15.5c-.24,5.4-.24,5.39-5.56,5.39h-8.18c.69-4.44,1.31-8.46,1.95-12.48.89-5.59,1.87-11.16,2.66-16.76.22-1.53.68-2.2,2.27-2a26.28,26.28,0,0,0,3.11,0C214.2,199.08,212.92,207.33,211.59,215.91Z" transform="translate(-42.1 -190.46)"/></svg>