<svg width="24" height="24" viewBox="0 0 24 24" fill="none" xmlns="http://www.w3.org/2000/svg">
<path d="M23.3035 0.707132C23.0814 0.482479 22.8169 0.304262 22.5252 0.182861C22.2336 0.0614599 21.9207 -0.000698597 21.6048 5.92241e-06H15.0194C14.5874 0.000811343 14.1731 0.171935 13.8665 0.476244L0.701508 13.6384C0.25229 14.0886 0 14.6985 0 15.3345C0 15.9704 0.25229 16.5803 0.701508 17.0305L6.96928 23.2982C7.41954 23.7476 8.02971 24 8.66587 24C9.30203 24 9.9122 23.7476 10.3625 23.2982L23.5221 10.1414C23.827 9.83525 23.9988 9.42113 24 8.98907V2.39995C24.0019 2.0857 23.9413 1.77421 23.8218 1.48359C23.7022 1.19297 23.5261 0.929033 23.3035 0.707132ZM18.8572 6.85698C18.5181 6.85698 18.1867 6.75644 17.9048 6.56808C17.6229 6.37971 17.4031 6.11199 17.2734 5.79875C17.1436 5.48551 17.1097 5.14084 17.1758 4.8083C17.242 4.47577 17.4053 4.17032 17.645 3.93058C17.8847 3.69084 18.1902 3.52758 18.5227 3.46143C18.8553 3.39529 19.1999 3.42923 19.5132 3.55898C19.8264 3.68873 20.0942 3.90845 20.2825 4.19035C20.4709 4.47226 20.5714 4.80369 20.5714 5.14274C20.5714 5.59738 20.3908 6.03341 20.0693 6.35489C19.7478 6.67637 19.3118 6.85698 18.8572 6.85698Z" fill="white"/>
</svg>
