<svg id="Layer_1" data-name="Layer 1" xmlns="http://www.w3.org/2000/svg" viewBox="0 0 467.57 68.11"><defs><style>.cls-1{fill:#ededed;}</style></defs><path class="cls-1" d="M16.22,217.65a2,2,0,0,1,1.7-.9c1.44-.09,2.87-.22,4.31-.23q6.45,0,12.9.07a17.61,17.61,0,0,1,2.39.25,3.84,3.84,0,0,1,3,2.27c1.22,2.44,2.47,4.86,3.7,7.28l16.28,32c.1.18.21.36.3.54,1.42,2.95,4.63,3,6.81,2.3A3.86,3.86,0,0,0,70,258.73l13.62-36.21c.47-1.24,1-2.46,1.49-3.68a4.25,4.25,0,0,1,4.12-2.74c3.31-.07,6.62-.07,9.92-.07,1.29,0,2.58.07,3.87.14a3.44,3.44,0,0,1,3,1.9q1.34,2.43,2.62,4.88,9,17.15,18.07,34.29c.61,1.16,1.34,2.25,2,3.4,1.5,2.83,6.15,2.12,7.29.05.47-.85.93-1.71,1.31-2.59q8.16-18.66,16.29-37.31c.46-1.06,1-2.07,1.58-3.08a3,3,0,0,1,2.66-1.61q5-.06,10,0c1.11,0,1.48.55,1.11,1.6a47.11,47.11,0,0,1-1.85,4.55Q156.06,245.64,145,269c-1.77,3.74-3.62,7.44-5.44,11.16-.11.23-.24.46-.36.69A5.41,5.41,0,0,1,134.1,284h-14a12,12,0,0,1-1.78-.23,4.07,4.07,0,0,1-3-2.27c-.77-1.51-1.48-3.05-2.2-4.59q-7.78-16.75-15.58-33.51A17.41,17.41,0,0,0,96.15,241a3.71,3.71,0,0,0-2.88-1.74,17.11,17.11,0,0,0-3.28.06,3.81,3.81,0,0,0-3,2.32c-.79,1.72-1.49,3.49-2.17,5.26Q78.36,263.64,72,280.38c-.1.24-.2.48-.31.72A4.37,4.37,0,0,1,67.43,284c-4,.05-8,0-11.94,0a31.57,31.57,0,0,1-3.35-.22,3,3,0,0,1-2.31-1.33c-1-1.63-2.07-3.27-3-5q-9-17.19-18-34.41C25,235.49,21,228,17.08,220.47c-.33-.62-.58-1.28-.86-1.93Z" transform="translate(-16.22 -215.95)"/><path class="cls-1" d="M483.78,217c-.9,1.28-1.76,2.58-2.7,3.83q-11.46,15.21-23,30.39-10.49,13.88-21,27.74a13.09,13.09,0,0,1-3.46,3.46,9.36,9.36,0,0,1-4.72,1.44c-3.08.09-6.16.13-9.25.14-3.44,0-6.87-.08-10.31-.09a11.79,11.79,0,0,1-9.61-4.83q-3.15-4-6.18-8.17Q375,245.54,356.52,220.15a4.12,4.12,0,0,1-.64-1.23,1.61,1.61,0,0,1,1.07-2.14,3.23,3.23,0,0,1,1.14-.24c4.68,0,9.35,0,14,0,1.7,0,3.4.12,5.09.23a3.09,3.09,0,0,1,2.3,1.24q1.71,2.19,3.35,4.42,16.32,22.38,32.63,44.76c1.14,1.57,2.36,3.07,3.6,4.57,2.76,3.34,8.69,2.64,10.83,0,1.19-1.46,2.38-2.92,3.53-4.42,6.2-8.09,12.45-16.14,18.57-24.29,6.28-8.38,12.45-16.85,18.62-25.31a3.76,3.76,0,0,1,3.43-1.77c2.56.07,5.12,0,7.68,0,.38,0,.75.05,1.12.06a1,1,0,0,1,.92.61Z" transform="translate(-16.22 -215.95)"/><path class="cls-1" d="M237.12,216.47h28.16c4.13,0,8.26-.05,12.39,0a33.43,33.43,0,0,1,9.7,1.19c7.35,2.25,11.88,7.07,13.1,14.7a21.46,21.46,0,0,1-2.5,14.49c-2.46,4.22-6.26,6.65-10.91,7.9-1.36.36-2.74.7-4.09,1.14a6.54,6.54,0,0,0-1.76.95,1.8,1.8,0,0,0-.59,2.35,10.11,10.11,0,0,0,1.59,2.2q7.83,8.1,15.71,16.15l4,4.11a2.29,2.29,0,0,1,.41.53,1.13,1.13,0,0,1-1,1.81c-1,.06-2,.1-3,.09q-6.28,0-12.56-.11c-.53,0-1.05-.07-1.57-.1a5.1,5.1,0,0,1-3.35-1.63q-3.47-3.46-6.91-6.95c-2.3-2.33-4.56-4.68-6.85-7-2.89-3-5.78-5.94-8.7-8.88-1.39-1.4-2.87-2.76-4.88-3.15a26.09,26.09,0,0,0-4.83-.47q-15.71-.06-31.42,0a15.7,15.7,0,0,0-3.06.28c-2.86.58-4.42,2.51-4.44,5.55,0,6.36,0,12.73,0,19.09a6.52,6.52,0,0,1-.1,1.17,2.16,2.16,0,0,1-2.22,2c-1.34.08-2.68.11-4,.11q-5.38,0-10.77,0c-2.31,0-3.13-.85-3.13-3.17q0-29.57,0-59.14a19.09,19.09,0,0,1,.12-2.51,2.5,2.5,0,0,1,2.54-2.44c1.34-.12,2.69-.13,4-.13,6.64,0,13.28,0,19.92,0h21Zm5.4,7.32H223.06l-1.35,0c-2.47,0-4.94-.06-7.4.06s-4,1.49-4.32,4a28,28,0,0,0-.19,3.3c0,3.67,0,7.35,0,11a17.66,17.66,0,0,0,.13,2.06,4.69,4.69,0,0,0,2.8,3.91,7.79,7.79,0,0,0,3.43.7q25.67,0,51.33,0a28.44,28.44,0,0,0,5.13-.45,10,10,0,0,0,8.11-6.88,16.56,16.56,0,0,0,.43-9.43,10,10,0,0,0-6.84-7.5,18.13,18.13,0,0,0-6-.82Z" transform="translate(-16.22 -215.95)"/><path class="cls-1" d="M336.87,255.74H323a3.8,3.8,0,0,1-.88-.12,1.2,1.2,0,0,1-1.05-1.09c-.09-1-.14-2.08-.16-3.12,0-.77,0-1.53.05-2.29,0-1.3.56-1.82,1.86-1.88h.39l19.18,0c2.66,0,5.31,0,8,0a4.53,4.53,0,0,1,.89.08c.9.16,1.32.54,1.34,1.44.06,1.79.07,3.58,0,5.37,0,1.1-.5,1.5-1.62,1.6-.45,0-.9,0-1.35,0H336.87Z" transform="translate(-16.22 -215.95)"/></svg>